<?xml version="1.0" standalone="no"?>
<!DOCTYPE svg PUBLIC "-//W3C//DTD SVG 20010904//EN"
 "http://www.w3.org/TR/2001/REC-SVG-20010904/DTD/svg10.dtd">
<svg version="1.0" xmlns="http://www.w3.org/2000/svg"
 width="400.000000pt" height="400.000000pt" viewBox="0 0 400.000000 400.000000"
 preserveAspectRatio="xMidYMid meet">
<metadata>
Created by potrace 1.14, written by Peter Selinger 2001-2017
</metadata>
<g transform="translate(0.000000,400.000000) scale(0.100000,-0.100000)"
fill="#000000" stroke="none">
<path d="M20 3989 c0 -5 -4 -7 -10 -4 -11 7 -14 -74 -4 -124 5 -23 11 -30 22
-26 12 5 13 3 2 -10 -11 -13 -11 -20 0 -40 7 -13 19 -26 26 -29 11 -4 11 0 -1
18 -9 13 -13 31 -9 40 7 19 16 20 32 4 9 -9 12 -8 12 5 0 10 7 20 15 23 8 4
15 15 15 25 0 10 5 19 11 19 8 0 7 5 -1 15 -7 9 -10 19 -6 23 4 4 14 -2 22
-12 9 -12 11 -23 5 -29 -17 -17 11 -35 41 -27 32 10 38 5 38 -31 0 -18 6 -28
20 -32 17 -4 19 -11 13 -38 -5 -28 -4 -31 12 -26 14 6 16 3 12 -13 -3 -11 -1
-23 4 -26 5 -3 9 15 9 40 0 47 7 55 28 34 8 -8 12 -9 12 -1 0 6 -6 14 -12 17
-10 5 -10 7 0 12 6 3 12 13 12 22 -1 15 -2 15 -15 -1 -12 -17 -18 -18 -49 -7
-20 6 -36 16 -36 21 0 12 34 11 46 -1 8 -8 15 -6 23 4 10 12 5 15 -29 21 -44
8 -55 25 -14 25 16 0 24 5 21 13 -2 6 -10 11 -17 9 -6 -1 -10 3 -8 10 3 7 16
12 29 10 l24 -3 -23 16 c-17 12 -26 14 -36 6 -7 -6 -16 -8 -20 -4 -4 4 -12 1
-17 -7 -8 -11 -9 -4 -4 23 4 25 3 37 -4 33 -5 -3 -12 0 -15 6 -3 7 -4 -3 -1
-23 7 -44 -2 -69 -23 -69 -13 0 -13 2 2 13 11 8 16 20 13 28 -4 10 -6 9 -6 -3
-1 -10 -4 -18 -8 -18 -12 0 -10 54 1 62 6 4 7 11 2 15 -5 4 -11 2 -13 -4 -3
-7 -12 -13 -21 -13 -15 0 -15 2 -2 10 12 8 11 10 -7 10 -12 0 -24 -6 -26 -12
-4 -10 -8 -9 -17 2 -9 12 -10 9 -8 -14 2 -17 -2 -31 -9 -33 -9 -3 -13 6 -13
26 0 24 -4 31 -20 31 -11 0 -20 -5 -20 -11z m30 -44 c0 -16 6 -25 15 -25 9 0
21 11 27 25 12 26 28 34 28 14 0 -7 -12 -22 -27 -35 -20 -17 -31 -20 -45 -13
-19 10 -26 59 -8 59 6 0 10 -11 10 -25z m97 3 c-3 -8 -6 -5 -6 6 -1 11 2 17 5
13 3 -3 4 -12 1 -19z m-117 -49 c0 -10 -4 -19 -10 -19 -5 0 -10 12 -10 26 0
14 4 23 10 19 6 -3 10 -15 10 -26z m80 1 c0 -5 -7 -10 -15 -10 -8 0 -15 5 -15
10 0 6 7 10 15 10 8 0 15 -4 15 -10z m130 6 c0 -11 -19 -15 -25 -6 -3 5 1 10
9 10 9 0 16 -2 16 -4z m-45 -26 c-28 -12 -37 -12 -30 0 3 6 16 10 28 9 21 0
21 -1 2 -9z m-131 -15 c-4 -8 -10 -12 -15 -9 -14 8 -10 24 6 24 9 0 12 -6 9
-15z"/>
<path d="M231 3986 c1 -16 17 -53 18 -40 1 5 9 19 20 30 18 20 18 21 -10 21
-16 0 -29 -5 -28 -11z"/>
<path d="M298 3983 c-16 -15 -16 -18 8 -40 23 -21 24 -25 10 -39 -9 -9 -13
-21 -9 -27 4 -7 9 -4 14 9 6 14 8 11 8 -16 1 -26 4 -31 11 -20 9 13 10 13 10
0 0 -13 1 -13 10 0 14 22 12 33 -4 27 -19 -7 -26 45 -9 62 20 18 16 41 -7 41
-11 0 -20 -4 -20 -10 0 -5 -6 -10 -12 -10 -7 1 -2 10 11 20 14 13 18 20 9 20
-7 0 -21 -8 -30 -17z"/>
<path d="M381 3991 c-11 -7 -11 -9 0 -13 11 -4 10 -8 -4 -22 -20 -20 -22 -36
-4 -36 8 0 7 -4 -3 -11 -11 -8 -12 -12 -2 -16 17 -7 15 -52 -3 -59 -8 -4 -15
-10 -15 -16 0 -5 5 -6 10 -3 6 4 10 -6 9 -22 0 -25 -1 -26 -9 -8 -8 18 -9 17
-9 -7 -1 -36 7 -35 54 5 44 38 46 65 3 42 -24 -12 -28 -12 -28 1 0 8 3 14 8
14 10 0 9 71 -1 88 -5 7 -4 12 2 12 6 0 11 -4 11 -10 0 -14 128 -6 142 9 10
11 10 14 1 18 -7 3 -13 12 -13 20 0 10 6 13 18 8 13 -5 14 -4 5 6 -10 10 -17
9 -33 -6 -11 -10 -20 -24 -20 -32 0 -7 -9 -13 -20 -13 -11 0 -20 7 -20 15 0 9
6 12 17 8 13 -5 15 -2 10 11 -4 10 -7 20 -7 22 0 2 -9 4 -21 4 -13 0 -18 -4
-13 -12 6 -10 4 -10 -7 0 -15 14 -38 15 -58 3z m49 -22 c0 -5 -7 -9 -15 -9 -8
0 -15 7 -15 15 0 9 6 12 15 9 8 -4 15 -10 15 -15z m100 -29 c0 -5 -4 -10 -10
-10 -5 0 -10 5 -10 10 0 6 5 10 10 10 6 0 10 -4 10 -10z m-124 -145 c-11 -8
-22 -12 -25 -9 -6 6 19 24 34 24 6 -1 1 -7 -9 -15z"/>
<path d="M577 3986 c-3 -9 -2 -18 3 -21 4 -3 10 1 13 7 2 7 8 10 12 6 4 -4 2
-14 -5 -23 -8 -10 -9 -15 -1 -15 6 0 11 5 11 10 0 6 14 10 30 10 17 0 30 -4
30 -10 0 -5 -6 -7 -14 -4 -7 3 -16 -2 -19 -10 -4 -11 -1 -13 10 -9 12 5 15 2
11 -8 -3 -8 -8 -25 -12 -39 -6 -19 -5 -21 3 -10 8 12 13 12 22 3 18 -18 6 -25
-41 -28 -42 -2 -54 9 -19 18 13 4 18 10 14 17 -4 7 -2 16 5 20 7 5 3 8 -13 8
-17 0 -24 -5 -21 -13 8 -20 -12 -27 -27 -9 -11 14 -10 18 6 30 10 8 13 14 7
14 -7 0 -12 8 -13 18 0 14 -1 15 -7 1 -13 -29 -36 -45 -59 -41 -27 5 -32 -14
-5 -21 15 -4 14 -5 -2 -6 -19 -1 -19 -1 -1 -14 17 -13 17 -14 -4 -20 -18 -4
-21 -1 -22 31 -1 33 -2 35 -9 12 -8 -24 -8 -24 -9 -2 -1 23 -21 32 -21 10 0
-10 -2 -10 -9 0 -12 20 -20 -6 -10 -38 6 -21 7 -22 9 -5 1 11 4 14 7 8 2 -7
11 -13 18 -13 22 0 29 -20 11 -33 -24 -18 3 -46 61 -63 41 -12 43 -13 13 -10
-19 1 -43 6 -52 11 -15 6 -18 2 -18 -20 0 -14 4 -24 9 -20 5 3 12 1 16 -5 3
-5 16 -10 28 -10 21 1 21 1 -3 15 -23 14 -21 15 41 10 53 -4 68 -2 73 10 3 8
12 12 21 9 20 -8 19 -24 -2 -39 -9 -7 -13 -17 -9 -24 6 -9 11 -8 20 5 7 9 18
14 24 10 22 -13 34 5 14 20 -11 8 -24 29 -27 47 -10 42 -16 52 -25 37 -10 -16
-73 -16 -78 -1 -4 13 -32 15 -32 3 0 -4 5 -13 12 -20 6 -6 9 -15 5 -18 -8 -8
-37 14 -37 29 0 6 -8 19 -17 30 -18 19 -17 20 10 13 19 -4 26 -3 22 4 -4 6 5
10 22 10 20 0 24 -3 14 -9 -11 -7 -8 -12 12 -26 28 -18 52 -12 43 11 -3 8 1
14 9 14 8 0 15 -4 15 -10 0 -5 8 -10 18 -10 10 0 22 -13 30 -32 7 -18 18 -41
23 -50 5 -10 9 -27 9 -39 0 -15 4 -19 16 -15 9 3 22 6 30 6 8 0 14 5 14 11 0
7 -10 9 -25 5 -32 -8 -32 -1 3 29 15 13 22 25 16 25 -6 0 -17 -7 -24 -15 -7
-8 -16 -15 -21 -15 -14 0 -10 30 4 30 6 1 2 6 -11 13 -12 7 -20 16 -16 19 3 4
2 13 -2 20 -5 7 -7 23 -6 34 2 12 -4 24 -12 27 -23 9 -19 26 4 20 11 -3 20 0
20 6 0 6 -6 11 -14 11 -19 0 -27 25 -13 39 9 9 8 14 -3 21 -8 5 -12 12 -8 15
3 4 15 1 26 -6 16 -10 18 -18 11 -35 -5 -14 -4 -26 1 -29 6 -4 10 1 10 10 0 9
5 13 10 10 8 -5 8 -11 1 -19 -6 -7 -8 -23 -5 -37 5 -19 3 -21 -5 -9 -7 9 -11
10 -11 3 0 -18 13 -21 38 -8 15 8 20 15 13 19 -16 11 -13 24 7 29 16 4 16 5 0
6 -20 1 -23 12 -7 28 8 8 8 13 0 17 -6 4 -11 2 -11 -4 0 -6 -4 -8 -10 -5 -18
11 -10 25 14 25 14 0 28 5 31 10 4 6 -7 10 -24 10 -18 0 -31 -5 -31 -12 0 -9
-3 -9 -12 0 -16 16 -68 15 -68 0 0 -8 -3 -9 -8 -3 -12 17 -59 18 -65 1z m-87
-192 c0 -14 -12 -19 -23 -8 -9 9 4 35 14 28 5 -3 9 -12 9 -20z m138 -31 c-10
-2 -18 -9 -18 -14 0 -5 -7 -9 -15 -9 -8 0 -15 4 -15 9 0 10 24 19 50 19 10 0
9 -2 -2 -5z"/>
<path d="M885 3991 c20 -4 26 -9 18 -14 -7 -5 -18 -5 -23 -2 -6 3 -15 -6 -20
-20 -13 -34 -13 -35 6 -35 8 0 13 4 10 8 -2 4 -1 13 3 20 5 9 26 10 81 3 44
-6 80 -6 90 -1 11 7 12 9 1 10 -7 0 -11 6 -7 15 3 8 2 14 -2 13 -4 -1 -20 2
-35 7 -19 5 -37 3 -54 -6 -21 -11 -27 -11 -30 -1 -3 6 -19 11 -36 11 l-32 -1
30 -7z m115 -21 c11 -7 7 -10 -18 -10 -20 0 -31 4 -27 10 8 13 26 13 45 0z"/>
<path d="M1073 3992 c14 -3 16 -7 6 -18 -6 -8 -7 -14 -2 -14 5 0 9 -15 10 -34
1 -31 -2 -34 -25 -33 -14 1 -27 8 -29 14 -3 8 4 11 17 8 12 -2 18 0 14 6 -3 5
-29 9 -57 7 -29 -1 -70 2 -91 6 -27 6 -37 6 -32 -2 4 -6 -3 -16 -16 -23 -16
-9 -23 -9 -26 0 -4 13 -32 15 -32 3 0 -5 13 -21 30 -37 23 -22 27 -32 19 -42
-6 -7 -10 -13 -8 -14 36 -8 59 -8 64 1 3 6 -3 10 -16 10 -12 0 -19 3 -16 7 4
3 0 14 -8 23 -14 15 -13 19 3 37 17 20 71 27 87 11 3 -3 0 -6 -7 -5 -35 1 -58
-4 -58 -13 0 -5 10 -10 23 -10 22 -1 22 -1 -3 -16 l-25 -15 31 4 c31 3 32 3
30 -42 -2 -34 3 -49 16 -59 10 -7 16 -18 13 -23 -10 -15 -22 -10 -28 11 -3 11
-11 20 -17 20 -9 0 -7 -8 4 -25 13 -20 14 -25 2 -25 -21 0 -40 -27 -24 -33 11
-4 10 -6 0 -6 -7 -1 -11 -5 -7 -11 3 -5 12 -7 19 -4 7 3 16 -2 19 -10 4 -9 18
-16 34 -16 l28 0 -29 25 c-16 13 -33 22 -37 19 -5 -3 -9 0 -9 5 0 14 10 13 40
-4 32 -18 40 -18 40 0 0 10 -10 15 -30 15 -16 0 -30 5 -30 10 0 6 11 10 25 10
14 0 25 4 25 9 0 5 9 11 20 14 29 8 25 25 -5 19 -15 -2 -25 0 -25 7 0 6 7 12
15 12 24 2 29 4 53 19 12 8 22 22 22 30 0 9 -9 4 -23 -14 -16 -20 -26 -26 -31
-17 -7 11 29 50 47 51 4 0 8 10 8 23 1 17 2 18 6 4 2 -9 9 -15 14 -12 5 4 9
-5 9 -19 0 -14 -5 -26 -12 -26 -6 0 -3 -6 8 -14 17 -14 18 -16 3 -28 -17 -14
-31 -65 -20 -73 4 -2 13 0 21 6 10 6 11 9 3 9 -7 0 -13 7 -13 16 0 15 2 15 23
1 21 -13 24 -13 33 0 6 10 31 18 64 21 47 4 53 3 43 -9 -10 -12 -8 -17 9 -28
15 -9 23 -10 31 -2 8 8 4 11 -12 11 -17 0 -22 4 -17 16 3 9 6 17 6 19 0 2 15
1 34 -2 21 -3 36 -1 41 7 5 8 4 11 -3 6 -6 -3 -13 -2 -16 3 -4 5 10 15 29 21
28 9 39 9 50 0 8 -7 15 -8 15 -3 0 17 -46 33 -59 20 -16 -16 -24 -2 -11 22 11
22 4 27 -18 13 -7 -5 -10 -16 -6 -25 3 -10 1 -17 -5 -17 -6 0 -11 -7 -11 -16
0 -11 -6 -14 -20 -9 -11 3 -20 2 -20 -3 0 -5 -17 -9 -37 -9 -21 0 -47 -4 -58
-8 -19 -7 -19 -7 -1 7 11 9 15 17 9 21 -6 4 -21 -2 -33 -13 -29 -25 -60 -28
-35 -4 9 9 13 24 10 35 -4 11 -2 19 4 19 6 0 11 -5 11 -11 0 -5 4 -8 10 -4 14
8 1 33 -21 40 -18 6 -21 28 -6 52 4 6 1 13 -5 16 -9 3 -7 11 7 28 49 57 50 55
-23 55 -37 0 -59 -2 -49 -4z m77 -11 c0 -12 -26 -32 -33 -25 -6 7 14 33 26 34
4 0 7 -4 7 -9z m-30 -66 c0 -14 -4 -25 -10 -25 -5 0 -9 11 -8 25 1 14 6 25 10
25 4 0 8 -11 8 -25z m-105 -15 c-3 -5 1 -10 9 -10 16 0 22 -15 9 -23 -5 -2 -1
-2 7 0 29 8 33 8 37 -5 3 -8 -8 -18 -26 -25 -19 -7 -31 -18 -31 -29 0 -10 -4
-18 -10 -18 -5 0 -10 7 -10 15 0 26 -19 16 -23 -12 -3 -23 -4 -21 -6 10 -1 32
2 37 22 38 21 1 21 1 -3 9 -14 4 -18 9 -10 10 9 1 5 6 -10 12 l-25 11 23 4
c12 3 20 9 17 14 -4 5 3 9 15 9 12 0 18 -4 15 -10z"/>
<path d="M1250 3984 c0 -13 3 -14 13 -5 8 6 17 8 20 4 4 -3 7 -1 7 5 0 7 -9
12 -20 12 -12 0 -20 -7 -20 -16z"/>
<path d="M1306 3988 c-5 -10 -5 -26 -2 -35 4 -9 1 -20 -6 -25 -10 -6 -8 -8 5
-8 9 0 17 7 17 15 0 9 7 18 15 21 8 4 15 11 15 16 0 6 -6 6 -14 -1 -12 -10
-15 -8 -18 11 -4 20 -5 21 -12 6z"/>
<path d="M1356 3986 c3 -9 10 -16 15 -16 5 0 9 -12 8 -27 0 -25 -1 -26 -9 -8
l-9 20 -1 -20 c0 -13 -14 -26 -37 -37 -53 -25 -60 -15 -36 48 2 6 -7 11 -23
10 -33 -1 -46 -26 -13 -26 22 0 22 0 3 -21 -16 -18 -19 -19 -22 -5 -5 22 -19
20 -27 -4 -3 -11 -14 -20 -23 -20 -13 0 -13 -3 -4 -12 10 -10 15 -10 23 2 8
11 12 12 16 3 3 -8 14 -11 30 -7 18 5 24 3 19 -5 -4 -6 -15 -11 -24 -11 -15
-1 -15 -2 1 -11 14 -8 16 -14 6 -25 -15 -18 -35 -18 -42 0 -4 10 -1 13 9 9 10
-4 12 0 8 11 -7 19 -28 16 -31 -5 -4 -20 18 -45 47 -54 21 -7 23 -6 12 7 -10
13 -9 16 8 21 12 3 20 11 19 19 -3 25 1 38 12 38 5 0 7 -4 4 -10 -3 -5 1 -10
9 -10 9 0 15 3 15 8 -4 27 4 40 29 45 15 3 31 1 37 -4 15 -15 28 -10 15 6 -10
12 -10 15 2 15 8 0 19 -5 25 -11 7 -7 12 -6 17 6 3 9 2 14 -3 11 -5 -4 -7 3
-4 14 4 14 -1 21 -21 26 -17 4 -26 13 -27 28 0 11 -3 15 -6 8 -4 -10 -8 -10
-19 -1 -12 10 -13 9 -8 -5z m54 -51 c0 -8 -4 -15 -10 -15 -5 0 -10 7 -10 15 0
8 5 15 10 15 6 0 10 -7 10 -15z"/>
<path d="M1410 3989 c0 -4 7 -9 15 -13 9 -3 15 0 15 8 0 7 -7 13 -15 13 -8 0
-15 -4 -15 -8z"/>
<path d="M1460 3993 c35 -14 40 -53 8 -54 -13 0 -18 -3 -12 -5 7 -3 11 -13 9
-22 -1 -9 0 -11 2 -4 3 6 9 12 14 12 5 0 9 -6 9 -12 0 -9 3 -8 10 2 14 22 23
5 10 -19 -13 -26 -3 -101 12 -79 6 9 8 4 7 -17 -4 -42 10 -82 22 -64 12 19 11
32 -1 24 -5 -3 -10 -1 -10 4 0 6 9 11 20 11 11 0 20 5 20 11 0 6 -7 9 -15 6
-8 -4 -17 -2 -20 3 -4 6 3 10 14 10 11 0 23 -5 26 -10 4 -6 11 -8 16 -5 5 4 9
-1 9 -10 0 -10 7 -14 23 -12 12 2 16 2 9 0 -10 -4 -9 -8 5 -19 26 -19 35 -17
31 9 -2 14 -11 23 -25 25 -24 4 -30 16 -13 27 6 3 10 13 10 22 0 13 -5 12 -25
-7 -20 -19 -25 -20 -25 -7 0 9 5 19 10 22 6 3 10 10 10 16 0 5 -4 9 -10 9 -5
0 -9 -6 -7 -12 1 -7 -4 -13 -10 -12 -7 1 -21 2 -31 3 -11 0 -18 9 -18 21 0 25
44 40 56 19 7 -10 11 -10 24 1 9 7 20 10 23 6 4 -4 1 -11 -7 -16 -13 -8 -12
-10 3 -10 9 0 17 -5 17 -11 0 -5 5 -7 10 -4 6 4 8 10 5 15 -3 5 -1 11 5 15 6
4 10 -4 10 -19 0 -29 10 -38 30 -25 13 7 13 9 -1 9 -9 0 -16 7 -16 15 0 20 9
19 28 -3 15 -17 15 -20 -3 -31 -16 -10 -17 -15 -7 -27 24 -29 -2 -28 -28 1
-16 19 -24 23 -20 12 4 -10 7 -22 7 -25 0 -4 9 -13 21 -20 25 -16 49 -1 49 29
0 24 18 25 27 2 12 -32 32 -45 60 -39 22 6 23 5 12 -7 -8 -8 -21 -16 -29 -19
-11 -4 -8 -9 12 -16 36 -15 41 -26 19 -46 -16 -15 -19 -15 -24 -1 -4 8 -11 15
-17 15 -7 0 -4 -13 7 -30 14 -25 15 -34 5 -50 -16 -26 -15 -29 7 -27 12 1 17
7 13 19 -3 14 0 17 14 11 18 -6 18 -6 0 15 -20 23 -14 44 6 24 7 -7 16 -12 20
-12 13 0 9 28 -4 33 -10 4 -10 8 1 15 11 8 11 10 0 14 -8 3 -10 9 -6 14 4 5
12 2 18 -6 8 -13 10 -13 19 0 7 11 10 11 10 2 0 -7 -7 -15 -15 -18 -23 -9 -18
-22 18 -40 22 -12 27 -19 17 -22 -8 -3 -18 -10 -22 -16 -5 -7 -8 -7 -8 2 0 7
-4 11 -9 8 -5 -3 -7 -15 -4 -25 3 -13 -1 -21 -14 -24 -17 -4 -17 -5 0 -6 10 0
28 9 40 22 13 12 32 21 42 19 16 -3 17 -1 8 8 -16 17 -5 40 19 40 10 0 16 -4
13 -10 -4 -6 7 -8 27 -5 32 5 32 5 5 -4 -16 -6 -36 -7 -44 -4 -12 5 -14 3 -7
-8 4 -8 7 -24 6 -36 -2 -11 1 -23 5 -26 5 -3 10 6 11 20 2 31 1 29 31 38 16 5
21 4 17 -4 -10 -15 7 -14 22 1 9 9 12 9 12 -1 0 -8 6 -11 16 -7 8 3 12 2 9 -4
-3 -6 -1 -10 4 -10 6 0 11 -5 11 -10 0 -7 -6 -7 -19 0 -28 14 -36 12 -21 -5 7
-8 20 -15 30 -15 10 0 23 7 30 15 8 10 9 15 2 15 -6 0 -9 7 -5 16 3 9 9 11 12
6 3 -5 15 -12 26 -14 12 -2 19 -11 18 -22 -2 -27 15 -68 26 -62 5 3 11 -3 14
-14 3 -11 1 -23 -4 -26 -5 -3 -9 1 -9 8 0 7 -11 13 -25 13 -30 0 -33 -15 -5
-22 11 -3 20 -9 20 -14 0 -5 7 -9 16 -9 13 0 12 -5 -5 -26 -17 -22 -19 -30 -9
-42 10 -12 10 -16 1 -19 -7 -3 -13 -9 -13 -15 0 -7 5 -7 13 1 8 6 16 8 20 5 9
-9 47 16 47 31 0 8 -5 15 -11 15 -5 0 -7 5 -4 10 9 15 25 12 25 -4 0 -8 7 -17
16 -20 14 -5 15 -4 4 9 -11 13 -11 18 0 28 10 9 11 9 6 0 -4 -7 -2 -13 4 -13
6 0 10 -10 8 -22 -2 -15 -9 -22 -21 -21 -17 1 -17 -1 3 -19 12 -11 24 -17 28
-13 3 3 1 10 -6 14 -10 6 -9 11 4 22 16 12 17 12 11 -3 -3 -10 -1 -20 5 -24 7
-4 6 -9 -3 -15 -11 -6 -10 -9 4 -15 9 -3 18 -16 18 -28 1 -17 2 -18 6 -3 4 14
8 16 18 7 18 -15 -2 -40 -25 -32 -8 3 -12 2 -8 -3 4 -4 17 -8 29 -9 28 -1 34
-19 14 -40 -9 -9 -12 -16 -6 -16 5 0 13 5 16 10 3 6 14 10 23 9 11 0 12 -3 5
-6 -19 -7 -15 -24 5 -21 10 2 16 -2 14 -10 -1 -8 2 -11 8 -7 6 4 22 0 35 -9
13 -9 32 -16 42 -16 10 0 14 -4 8 -8 -5 -4 -11 -15 -13 -24 -2 -12 6 -9 27 12
18 19 35 28 45 24 25 -10 18 -25 -9 -20 -14 3 -25 0 -25 -5 0 -6 14 -9 30 -7
22 2 38 -4 58 -24 67 -68 105 -96 118 -91 8 3 14 0 14 -6 0 -6 -5 -11 -12 -11
-6 0 -9 -2 -6 -5 10 -10 37 7 32 20 -3 7 2 19 10 28 8 8 12 17 9 21 -4 3 -1 6
5 6 8 0 12 -18 12 -48 0 -41 -3 -48 -20 -49 -13 -1 -18 2 -13 10 3 7 -2 5 -13
-4 -30 -26 -81 -32 -94 -11 -11 16 -11 16 -6 0 3 -11 0 -18 -7 -18 -7 0 -33
-11 -59 -23 l-46 -23 -16 34 c-9 18 -13 38 -10 44 4 7 2 8 -4 4 -15 -9 -15 -1
-1 27 9 19 8 20 -3 6 -12 -15 -16 -15 -43 7 -51 41 -116 24 -138 -36 -4 -10
-6 -8 -6 7 -1 12 -5 24 -10 28 -6 3 -6 -8 -1 -27 15 -58 21 -221 10 -278 -14
-73 -15 -78 -23 -86 -4 -4 -7 -13 -7 -20 0 -15 -46 -85 -63 -96 -7 -4 -8 -8
-3 -8 5 0 -20 -29 -54 -65 -60 -60 -146 -115 -195 -122 -11 -2 -36 -9 -55 -17
-19 -7 -54 -17 -77 -21 -24 -4 -43 -11 -43 -17 0 -5 -9 -7 -20 -3 -11 3 -25 3
-32 -1 -6 -4 -41 -9 -77 -10 -36 -1 -104 -5 -151 -8 -47 -3 -122 -8 -167 -11
-94 -6 -150 -17 -248 -52 -175 -63 -255 -107 -333 -181 -60 -59 -62 -60 -74
-39 -16 29 -12 168 7 238 8 29 18 70 21 89 4 19 12 42 18 50 6 8 22 35 35 60
16 31 45 60 94 95 122 87 193 154 225 213 44 79 52 98 52 119 0 13 3 23 8 23
4 0 6 24 4 52 -4 86 -7 112 -15 126 -5 6 -4 12 2 12 5 0 13 -4 16 -10 3 -5 16
-9 28 -9 20 1 21 2 2 6 -26 6 -65 43 -65 60 0 8 -7 25 -16 38 -9 13 -13 29 -9
35 3 6 -3 10 -15 10 -12 0 -19 4 -16 9 7 11 -17 21 -50 21 -14 0 -22 4 -19 10
3 6 0 10 -7 10 -7 0 -2 7 10 16 12 8 20 19 17 23 -2 5 4 16 14 25 15 13 20 14
24 4 3 -7 6 -8 6 -3 1 15 -11 28 -37 43 -27 15 -32 13 -35 -17 -1 -13 -6 -20
-14 -17 -7 3 -13 1 -13 -4 0 -16 30 -11 36 5 4 8 12 15 20 15 20 0 17 -13 -6
-28 -11 -7 -17 -18 -14 -27 4 -8 1 -15 -5 -15 -6 0 -16 -10 -23 -22 -7 -13
-19 -23 -25 -24 -36 -3 -41 -5 -39 -21 1 -13 -6 -18 -24 -18 -23 1 -25 -2 -21
-43 2 -31 0 -42 -8 -38 -15 10 -14 -5 5 -43 12 -24 13 -35 4 -45 -8 -11 -8
-15 2 -18 21 -7 13 -82 -13 -120 -13 -18 -27 -35 -32 -37 -5 -2 -21 -15 -36
-30 -15 -15 -33 -25 -39 -23 -7 2 -12 -1 -12 -7 0 -6 -6 -11 -12 -11 -13 0
-61 -38 -103 -80 -12 -11 -26 -20 -33 -20 -7 0 -12 -5 -12 -10 0 -6 -14 -26
-31 -45 -60 -66 -139 -222 -121 -239 3 -3 0 -6 -7 -6 -7 0 -11 -7 -8 -15 4 -8
2 -17 -3 -20 -6 -4 -10 -16 -10 -29 0 -12 -3 -26 -6 -29 -25 -25 -18 -301 8
-334 5 -7 8 -16 5 -20 -3 -4 2 -22 12 -39 9 -18 25 -49 35 -70 11 -22 35 -58
53 -80 l34 -42 -19 -48 c-37 -96 -82 -343 -82 -452 0 -77 28 -248 51 -317 20
-58 45 -117 95 -218 24 -49 120 -184 187 -264 20 -24 35 -48 32 -52 -2 -5 -26
-11 -52 -15 -67 -9 -153 -50 -153 -73 0 -10 4 -23 8 -29 23 -35 59 -37 537
-35 989 4 1579 0 1594 -12 11 -9 13 -9 8 0 -6 9 61 12 282 12 160 0 301 3 315
7 29 7 39 36 21 60 -10 15 -10 20 1 32 32 31 10 129 -41 189 l-34 40 35 106
c71 217 101 428 102 707 0 169 -9 347 -23 410 -3 14 -10 54 -16 90 -26 149
-34 183 -86 370 -13 47 -37 137 -53 200 -41 162 -103 350 -112 344 -10 -7 -10
19 0 31 4 6 5 9 3 8 -11 -7 -27 43 -18 55 8 9 7 12 -3 10 -8 -2 -22 18 -35 52
-11 30 -33 81 -49 112 -15 32 -24 63 -20 69 4 7 3 9 -2 6 -6 -3 -23 15 -38 40
-16 24 -38 49 -50 54 -17 7 -14 8 12 5 28 -4 31 -2 21 10 -6 7 -16 11 -23 8
-6 -4 -1 4 11 16 19 21 26 22 64 14 29 -6 43 -15 45 -27 1 -11 6 -22 10 -25 4
-4 4 1 1 11 -4 9 -3 17 2 17 11 0 71 -70 72 -84 0 -6 2 -18 4 -26 13 -63 3
-102 -32 -130 -14 -11 -20 -20 -13 -20 6 0 20 -10 29 -22 14 -17 18 -18 18 -5
0 9 -4 14 -9 11 -4 -3 -8 0 -8 5 0 15 27 14 33 -1 4 -10 6 -10 6 0 1 7 -5 15
-13 18 -11 4 -5 18 24 57 22 28 42 65 46 82 4 16 13 40 22 53 8 13 11 22 6 21
-22 -4 -25 3 -10 26 14 21 14 24 1 19 -8 -4 -15 -1 -15 5 0 6 9 11 19 11 10 0
21 7 25 15 3 8 11 14 18 13 6 -2 13 6 15 17 l3 20 -9 -20 c-5 -11 -10 -16 -10
-11 -1 5 -7 3 -14 -3 -17 -14 -28 -4 -20 17 5 14 3 15 -7 5 -11 -10 -11 -15 1
-30 12 -16 12 -17 -2 -6 -9 7 -18 11 -21 8 -2 -3 -11 6 -18 20 -11 20 -11 28
-1 38 10 9 11 9 6 -4 -7 -19 10 -35 20 -20 3 6 -3 19 -14 30 -14 14 -16 22 -7
31 6 6 -6 4 -26 -5 -40 -16 -45 -11 -27 29 10 22 8 30 -15 60 -14 19 -26 37
-26 39 0 3 18 3 40 0 37 -5 41 -3 61 31 11 20 24 36 28 36 4 0 11 -19 17 -42
6 -30 15 -42 29 -44 24 -4 55 5 53 14 -1 4 1 24 5 45 5 24 13 37 24 37 12 0
13 -3 4 -14 -8 -10 -9 -16 -1 -21 16 -10 50 4 50 21 0 9 -5 12 -12 8 -6 -4 -8
-3 -5 4 9 14 -3 43 -14 36 -5 -3 -6 -10 -3 -16 4 -7 2 -8 -4 -4 -9 5 -9 13 -2
26 15 27 15 27 -42 45 -29 10 -57 21 -61 25 -5 4 10 20 32 36 43 31 45 35 31
104 -4 25 -7 47 -5 48 2 2 24 -10 49 -27 24 -17 47 -31 51 -31 3 0 23 11 45
25 22 14 42 25 45 25 3 0 4 -28 2 -61 -2 -64 15 -93 27 -44 7 28 21 33 30 9 4
-11 13 -14 31 -10 19 5 23 3 18 -9 -3 -9 -12 -14 -19 -11 -7 3 -16 1 -19 -4
-4 -6 -11 -10 -17 -10 -7 0 -6 5 1 14 8 9 8 16 2 20 -6 4 -15 -2 -20 -12 -8
-16 -5 -24 19 -46 33 -29 46 -32 53 -13 2 6 8 9 12 4 18 -16 -19 -31 -92 -37
l-77 -5 -19 -50 c-10 -27 -21 -61 -23 -74 -4 -21 -4 -22 12 -7 9 9 13 23 10
31 -3 8 -1 15 4 15 6 0 10 -7 10 -16 0 -10 6 -14 14 -11 8 3 17 -1 20 -10 4
-11 2 -14 -9 -10 -8 4 -17 2 -20 -3 -4 -6 2 -10 12 -10 17 -1 17 -1 1 -14 -22
-16 -23 -26 -4 -26 8 0 18 9 21 20 3 11 14 20 23 20 15 0 15 2 2 10 -14 9 -13
10 18 10 4 0 7 -4 7 -9 0 -5 3 -13 8 -17 12 -13 8 -24 -8 -18 -9 4 -15 0 -15
-8 0 -7 9 -14 20 -14 11 0 20 3 20 7 0 4 3 14 6 23 4 11 1 16 -11 16 -9 0 -13
5 -10 10 4 7 13 7 25 0 16 -9 18 -8 13 6 -4 10 -2 15 3 11 6 -3 15 3 22 14 10
16 9 19 -3 19 -8 0 -15 5 -15 10 0 6 7 10 15 10 19 0 19 14 0 30 -15 12 -21 3
-16 -24 1 -5 -10 -6 -24 -4 -20 4 -25 2 -21 -9 3 -8 6 -17 6 -20 0 -3 6 0 14
6 10 8 16 9 21 1 8 -13 -37 -30 -66 -25 -25 5 -39 22 -38 45 1 12 2 11 6 -1 2
-10 12 -19 22 -22 14 -3 17 0 14 14 -3 10 -10 16 -16 12 -5 -3 -7 -1 -3 5 3 5
1 12 -5 14 -7 2 -5 9 5 17 14 12 16 12 10 -3 -4 -11 -1 -16 11 -16 10 0 14 5
10 13 -4 6 1 3 10 -8 17 -21 18 -20 47 29 10 19 11 19 29 -3 11 -13 19 -30 19
-38 0 -8 4 -11 10 -8 6 4 5 16 -5 34 -13 27 -11 41 5 41 4 0 10 -13 14 -30 4
-23 11 -30 28 -30 18 0 23 -6 25 -30 1 -17 -2 -30 -7 -30 -18 0 -11 -25 10
-38 28 -17 43 -6 27 19 -10 17 -9 23 8 35 20 15 19 16 -10 40 -18 14 -37 21
-47 18 -20 -6 -24 6 -7 23 8 8 6 18 -7 38 -16 24 -19 25 -24 9 -6 -17 -7 -17
-13 0 -4 10 -2 25 4 32 6 8 9 21 5 29 -3 8 -1 15 4 15 6 0 10 -5 10 -11 0 -5
4 -8 9 -4 5 3 12 1 16 -5 3 -5 -1 -10 -10 -10 -9 0 -15 -6 -12 -12 2 -7 12
-11 22 -10 17 3 17 2 4 -14 -7 -9 -9 -15 -4 -13 6 2 27 11 48 19 40 15 49 30
17 30 -22 0 -27 15 -8 26 6 4 14 2 16 -5 2 -7 16 -17 31 -23 23 -10 24 -12 6
-16 -11 -2 -29 -11 -40 -18 -19 -14 -19 -14 3 -14 12 0 22 -4 22 -10 0 -5 7
-7 15 -4 8 4 12 10 9 15 -3 5 -1 9 5 9 5 0 11 -6 14 -12 3 -10 8 -9 22 2 14
11 19 12 22 3 3 -7 12 -13 20 -13 12 0 13 3 4 13 -6 8 -8 17 -4 20 3 4 1 7 -5
7 -7 0 -12 5 -12 10 0 6 6 10 14 10 8 0 14 10 14 25 0 15 -6 25 -15 25 -8 0
-11 5 -8 10 4 6 10 8 15 5 5 -3 8 8 8 24 -1 25 -3 28 -15 15 -20 -20 -23 -18
-10 11 7 14 15 25 19 25 3 0 7 45 7 100 l1 100 -373 0 c-343 0 -375 -1 -390
-17 -8 -10 -16 -22 -17 -28 -1 -5 -9 -9 -18 -8 -10 1 -11 0 -4 -3 17 -8 5 -24
-13 -17 -8 3 -15 1 -15 -4 0 -17 34 -10 50 9 15 19 17 18 74 -19 l59 -38 -87
-3 -87 -3 -36 -74 c-21 -41 -40 -75 -44 -75 -3 0 -12 26 -19 58 -20 88 -17 85
-111 83 l-84 -1 36 32 c19 18 48 43 63 56 15 13 26 28 23 35 -5 16 -575 21
-594 5 -9 -7 -13 -7 -13 1 0 8 -122 11 -441 11 l-441 0 4 -32 c2 -17 -2 -33
-8 -35 -6 -2 -8 10 -6 32 4 34 3 35 -29 34 -19 0 -27 -3 -19 -6z m114 -66 c3
4 15 -3 26 -15 23 -25 22 -26 -14 -13 -20 8 -29 5 -52 -15 -27 -26 -27 -22 -2
28 8 17 16 23 24 17 6 -5 14 -6 18 -2z m737 -67 c10 0 10 -3 1 -12 -7 -7 -12
-21 -12 -31 0 -16 -3 -17 -14 -8 -10 8 -16 9 -21 1 -11 -18 -23 -11 -18 10 3
11 0 20 -6 20 -6 0 -11 5 -11 10 0 6 9 10 20 10 12 0 20 7 20 18 1 16 1 16 14
0 7 -10 19 -18 27 -18z m649 -14 c0 -3 -4 -8 -10 -11 -5 -3 -10 -1 -10 4 0 6
5 11 10 11 6 0 10 -2 10 -4z m60 0 c0 -3 -4 -8 -10 -11 -5 -3 -10 -1 -10 4 0
6 5 11 10 11 6 0 10 -2 10 -4z m963 -16 c-3 -11 -9 -20 -13 -20 -5 0 -16 -3
-26 -7 -11 -4 -15 -2 -13 6 3 7 8 11 12 9 5 -2 13 5 18 15 14 23 28 22 22 -3z
m-2411 -12 c-9 -9 -15 -9 -24 0 -9 9 -7 12 12 12 19 0 21 -3 12 -12z m2358
-60 c0 -10 4 -18 9 -18 5 0 14 -13 20 -30 12 -36 0 -40 -18 -7 -9 16 -20 23
-34 20 -33 -5 -52 11 -39 33 10 18 11 18 17 2 10 -26 35 -22 35 5 0 18 -2 19
-10 7 -8 -13 -10 -13 -10 1 0 9 3 19 7 22 9 9 23 -13 23 -35z m-110 -74 c0
-25 -15 -33 -23 -11 -6 18 4 48 14 41 5 -3 9 -16 9 -30z m55 26 c3 -5 -1 -10
-10 -10 -9 0 -13 5 -10 10 3 6 8 10 10 10 2 0 7 -4 10 -10z m45 -10 c0 -5 -5
-10 -11 -10 -5 0 -7 5 -4 10 3 6 8 10 11 10 2 0 4 -4 4 -10z m-1148 -17 c16
-14 22 -14 46 -2 15 7 30 15 34 17 4 2 4 -13 1 -33 -5 -29 -1 -41 17 -60 l23
-25 -22 0 c-34 0 -58 -17 -66 -47 l-8 -28 -13 33 c-8 17 -18 32 -23 32 -6 0
-22 5 -38 11 l-28 11 25 20 c19 15 24 28 21 54 -3 38 4 42 31 17z m418 -14 c0
-5 4 -8 9 -5 5 4 7 -2 4 -13 -5 -19 -33 -23 -45 -6 -7 10 9 35 23 35 5 0 9 -5
9 -11z m-1133 -15 c-3 -3 -12 -4 -19 -1 -8 3 -5 6 6 6 11 1 17 -2 13 -5z m208
-114 c-7 -33 -3 -37 17 -17 11 11 16 10 33 -5 15 -15 16 -18 3 -13 -11 4 -18
0 -22 -12 -3 -10 -15 -24 -27 -31 -20 -13 -21 -12 -15 15 4 18 1 36 -8 48 -16
22 -11 45 11 45 11 0 13 -7 8 -30z m1395 21 c0 -5 -9 -7 -20 -4 -11 3 -20 7
-20 9 0 2 9 4 20 4 11 0 20 -4 20 -9z m-430 -11 c0 -5 -5 -10 -11 -10 -5 0 -7
5 -4 10 3 6 8 10 11 10 2 0 4 -4 4 -10z m610 -34 c0 -3 -4 -8 -10 -11 -5 -3
-10 -1 -10 4 0 6 5 11 10 11 6 0 10 -2 10 -4z m-1533 -59 c-6 -14 -19 -28 -27
-29 -9 -2 -15 -15 -15 -32 0 -16 -5 -31 -11 -33 -21 -7 -10 68 11 80 11 6 26
19 34 29 18 26 23 17 8 -15z m1518 -7 c3 -5 1 -10 -4 -10 -6 0 -11 5 -11 10 0
6 2 10 4 10 3 0 8 -4 11 -10z m-777 -100 c13 0 13 -2 -1 -18 -10 -10 -17 -23
-17 -28 0 -6 -16 -10 -35 -11 -30 -1 -33 1 -26 15 7 12 5 22 -6 34 -15 17 -14
18 10 18 19 0 27 5 28 18 0 14 3 13 16 -5 8 -13 22 -23 31 -23z m-268 -267
c-11 -17 -11 -17 -6 0 3 10 6 24 7 30 0 9 2 9 5 0 3 -7 0 -20 -6 -30z m230
-210 c49 -45 43 -121 -12 -149 -98 -51 -186 69 -109 147 38 38 80 39 121 2z
m-299 -82 c22 -22 29 -39 29 -68 0 -50 -22 -80 -70 -94 -53 -16 -97 2 -116 47
-43 102 80 192 157 115z m-916 -761 c3 -5 1 -10 -4 -10 -6 0 -11 5 -11 10 0 6
2 10 4 10 3 0 8 -4 11 -10z m-290 -119 c-107 -66 -122 -199 -32 -276 83 -71
207 -50 257 43 10 21 19 30 20 21 0 -9 -15 -39 -32 -65 -72 -108 -209 -124
-301 -36 -56 53 -72 115 -52 195 18 70 88 137 145 137 25 0 25 0 -5 -19z m565
-21 c0 -5 -2 -10 -4 -10 -3 0 -8 5 -11 10 -3 6 -1 10 4 10 6 0 11 -4 11 -10z
m-156 -122 c-10 -16 -36 -8 -30 8 3 9 6 21 6 27 0 6 6 2 14 -8 8 -11 12 -23
10 -27z m252 -308 c23 0 -4 -36 -28 -37 -11 -1 -18 1 -14 4 3 3 1 12 -5 20 -9
10 -8 13 5 13 9 0 17 8 17 18 1 16 2 16 6 0 2 -10 11 -18 19 -18z m1054 -70
c0 -5 -4 -10 -10 -10 -5 0 -10 5 -10 10 0 6 5 10 10 10 6 0 10 -4 10 -10z
m-1995 -10 c3 -5 1 -10 -4 -10 -6 0 -11 5 -11 10 0 6 2 10 4 10 3 0 8 -4 11
-10z m785 -80 c0 -5 7 -10 16 -10 13 0 14 -3 4 -15 -6 -8 -8 -20 -4 -26 5 -9
2 -10 -11 -6 -9 4 -24 2 -32 -5 -13 -10 -15 -9 -11 7 2 11 -3 25 -12 32 -13
11 -12 12 8 13 12 0 22 5 22 10 0 6 5 10 10 10 6 0 10 -4 10 -10z m555 -89 c8
-29 9 -53 4 -57 -12 -7 -11 -24 1 -24 6 0 10 7 10 15 0 10 11 15 35 15 19 0
35 -2 35 -5 0 -2 -19 -14 -41 -26 -40 -20 -41 -22 -36 -59 7 -51 -1 -56 -35
-23 l-29 28 -40 -22 c-21 -12 -39 -20 -39 -17 0 2 7 22 16 44 16 39 16 40 -15
77 -17 20 -29 38 -28 39 1 1 21 -1 44 -5 43 -8 43 -8 69 36 14 25 28 42 31 40
2 -3 10 -28 18 -56z m354 -117 c4 3 7 -3 7 -13 0 -11 -8 -17 -21 -17 -26 1
-36 28 -16 43 13 9 17 9 19 -3 2 -8 7 -12 11 -10z m-1360 -140 l34 5 -27 -28
c-23 -24 -25 -31 -16 -56 14 -36 7 -42 -26 -21 -25 17 -27 17 -48 -3 -30 -29
-36 -26 -29 12 4 28 1 37 -22 55 l-28 22 32 6 c24 5 36 15 48 43 l16 36 16
-38 c15 -36 18 -38 50 -33z m1260 -56 c34 12 37 6 20 -32 -9 -18 -9 -33 0 -56
11 -32 11 -32 -19 -27 -22 5 -36 0 -58 -18 -32 -27 -42 -24 -42 12 0 16 -10
30 -30 41 -38 22 -38 27 2 38 21 6 34 17 36 29 7 46 11 49 37 25 21 -19 28
-21 54 -12z m-1018 -74 l32 -46 53 6 c30 3 54 4 54 0 0 -3 -10 -28 -21 -55
l-22 -50 27 -48 c14 -27 26 -51 26 -53 0 -3 -28 4 -62 15 l-62 20 -43 -49 -43
-48 0 56 c0 55 -1 58 -43 90 -24 18 -44 38 -44 43 0 6 18 17 41 25 39 15 42
18 55 78 8 34 16 62 17 62 2 0 17 -21 35 -46z m295 -116 c4 4 3 0 -4 -9 -6 -9
-9 -19 -5 -22 3 -4 -3 -7 -14 -7 -24 0 -36 23 -20 39 7 7 15 7 22 1 7 -5 16
-6 21 -2z m574 -54 c0 -8 9 -14 22 -14 20 0 20 -1 4 -19 -10 -11 -15 -24 -12
-30 4 -5 2 -12 -3 -15 -5 -4 -13 -1 -16 5 -4 6 -18 8 -32 4 -21 -5 -23 -3 -14
12 7 13 5 23 -6 35 -15 17 -14 18 6 18 12 0 24 7 27 15 7 18 24 10 24 -11z
m-190 -29 c20 6 21 5 10 -14 -6 -12 -8 -31 -5 -42 6 -17 3 -20 -13 -17 -11 2
-29 -6 -41 -16 -21 -19 -21 -19 -21 8 0 19 -6 29 -20 33 -23 6 -27 23 -5 23 9
0 21 11 27 25 10 23 13 24 29 9 11 -10 25 -13 39 -9z m-1172 0 c19 -14 25 -14
53 1 l32 16 -7 -33 c-5 -27 -2 -38 21 -61 l27 -28 -38 0 c-32 0 -38 -4 -47
-30 -13 -36 -21 -38 -34 -8 -10 21 -24 31 -59 43 -18 5 -18 7 4 30 16 17 21
32 18 54 -5 35 -1 37 30 16z m192 -6 c0 -5 -4 -9 -10 -9 -5 0 -10 7 -10 16 0
8 5 12 10 9 6 -3 10 -10 10 -16z m1547 -25 c25 15 48 24 51 21 3 -3 1 -30 -5
-60 -5 -30 -6 -55 -3 -55 8 0 80 -66 80 -74 0 -3 -27 -6 -61 -8 l-61 -3 -22
-53 -22 -52 -24 49 c-22 48 -26 51 -77 62 -30 7 -56 16 -59 20 -2 4 14 22 37
40 39 31 41 34 35 73 -4 23 -10 52 -13 66 -6 23 -4 22 45 -14 l52 -38 47 26z
m-1417 -82 c0 -23 34 -44 58 -35 27 11 10 -15 -18 -27 -26 -11 -30 -17 -30
-53 l0 -42 -27 27 c-25 25 -27 26 -50 11 -30 -20 -37 -13 -22 21 10 21 9 29
-3 43 -33 39 -33 46 2 41 27 -4 35 0 53 28 23 34 37 29 37 -14z m545 22 c34
22 38 20 31 -16 -5 -26 -1 -37 21 -60 l27 -28 -38 0 c-33 0 -39 -4 -49 -30 -6
-16 -14 -30 -17 -30 -3 0 -11 14 -17 30 -8 22 -18 30 -37 30 -34 0 -40 14 -15
36 16 15 19 25 13 58 l-6 39 31 -22 c30 -21 33 -22 56 -7z m565 -62 c0 -15 9
-26 25 -32 32 -12 32 -28 1 -40 -18 -7 -26 -19 -31 -51 l-7 -43 -20 27 c-16
22 -28 27 -60 27 l-40 0 17 26 c16 25 16 48 0 86 -6 16 -4 17 26 6 30 -10 34
-9 52 16 22 30 37 21 37 -22z m-1660 -28 c0 -8 8 -14 17 -14 13 0 14 -3 5 -12
-7 -7 -12 -20 -12 -30 0 -19 -15 -24 -25 -8 -4 7 -13 6 -27 -1 -18 -10 -19 -8
-13 11 4 12 1 27 -5 35 -10 12 -9 15 8 15 11 0 23 7 26 16 7 18 26 10 26 -12z
m868 -54 c15 -1 15 -2 0 -11 -10 -5 -18 -21 -18 -35 0 -22 -2 -23 -20 -14 -12
6 -29 8 -40 5 -15 -5 -17 -2 -13 15 3 11 0 27 -7 35 -10 12 -9 15 8 15 12 0
23 9 28 22 6 22 7 21 26 -5 11 -15 27 -27 36 -27z m-663 19 c4 -5 21 -9 38 -7
27 3 32 0 29 -18 -2 -13 5 -24 20 -31 l23 -11 -27 -7 c-15 -4 -30 -16 -33 -26
-8 -24 -16 -24 -38 1 -9 11 -27 20 -38 20 -21 0 -21 1 -4 20 11 12 16 29 13
45 -5 25 5 34 17 14z m1163 -24 c6 -14 19 -25 28 -25 16 0 16 -1 1 -18 -10
-10 -17 -26 -17 -35 0 -19 -11 -22 -27 -6 -8 8 -17 8 -33 -1 -21 -11 -22 -10
-15 19 5 23 3 33 -9 37 -25 10 -19 22 8 17 18 -4 26 0 31 16 9 28 19 27 33 -4z
m915 -126 c4 -15 0 -17 -27 -13 -55 10 -57 12 -50 41 4 16 9 32 11 36 7 12 60
-40 66 -64z m-1123 -33 c0 -3 -4 -8 -10 -11 -5 -3 -10 -1 -10 4 0 6 5 11 10
11 6 0 10 -2 10 -4z"/>
<path d="M2919 2854 c-10 -13 -10 -23 3 -57 16 -44 39 -57 63 -37 18 15 10 59
-13 78 -9 6 -12 12 -6 12 10 0 -17 20 -27 20 -4 0 -12 -7 -20 -16z"/>
<path d="M2612 2778 c-16 -16 -15 -53 3 -88 28 -55 83 -27 63 31 -5 15 -16 30
-24 33 -7 3 -11 12 -8 21 7 18 -17 20 -34 3z"/>
<path d="M1520 929 c0 -5 5 -7 10 -4 6 3 10 8 10 11 0 2 -4 4 -10 4 -5 0 -10
-5 -10 -11z"/>
<path d="M1625 460 c-3 -5 -1 -10 4 -10 6 0 11 5 11 10 0 6 -2 10 -4 10 -3 0
-8 -4 -11 -10z"/>
<path d="M807 3979 c7 -7 15 -10 18 -7 3 3 -2 9 -12 12 -14 6 -15 5 -6 -5z"/>
<path d="M1195 3970 c-3 -11 -13 -20 -20 -20 -16 0 -30 -18 -21 -27 7 -7 66
46 66 59 0 16 -19 7 -25 -12z"/>
<path d="M786 3945 c-5 -14 17 -28 28 -18 10 10 7 21 -8 26 -8 3 -17 0 -20 -8z"/>
<path d="M1190 3921 c-6 -12 -7 -21 -1 -21 10 0 24 30 17 37 -2 3 -9 -5 -16
-16z"/>
<path d="M1330 3930 c0 -5 5 -10 10 -10 6 0 10 5 10 10 0 6 -4 10 -10 10 -5 0
-10 -4 -10 -10z"/>
<path d="M788 3905 c-4 -4 -4 -13 -2 -19 3 -7 -2 -19 -11 -26 -13 -11 -12 -15
10 -36 15 -13 30 -24 36 -24 18 0 9 27 -13 39 l-23 11 23 -6 c25 -6 32 19 8
33 -7 4 -15 14 -17 21 -3 7 -7 10 -11 7z"/>
<path d="M1345 3870 c-3 -5 1 -10 9 -10 9 0 16 5 16 10 0 6 -4 10 -9 10 -6 0
-13 -4 -16 -10z"/>
<path d="M1406 3865 c-20 -15 -20 -15 0 -16 18 0 18 -1 -1 -10 -16 -8 -15 -8
8 -4 21 4 27 2 21 -6 -4 -8 -3 -9 4 -5 8 4 12 0 12 -10 0 -11 3 -14 9 -8 11
11 2 74 -11 74 -5 0 -7 -9 -3 -20 5 -15 3 -19 -10 -14 -9 4 -14 13 -11 20 7
17 6 17 -18 -1z"/>
<path d="M1476 3834 c5 -26 3 -39 -7 -45 -7 -4 -10 -11 -7 -15 11 -10 34 19
34 44 0 12 -4 22 -8 22 -4 0 -5 7 -2 15 4 8 1 15 -5 15 -8 0 -10 -12 -5 -36z"/>
<path d="M122 3838 c-7 -7 -12 -18 -12 -25 0 -7 -7 -13 -15 -13 -9 0 -13 -7
-9 -17 2 -10 -1 -8 -7 5 -7 12 -16 22 -21 22 -15 0 -9 -16 13 -36 16 -14 23
-15 26 -6 3 6 13 12 23 12 10 0 20 -6 23 -12 2 -7 8 -9 13 -5 4 4 3 17 -4 27
-16 26 -15 33 3 26 13 -4 14 -2 5 14 -12 23 -21 25 -38 8z"/>
<path d="M179 3813 c-1 -21 -1 -41 0 -45 0 -5 -3 -8 -7 -8 -5 0 -8 -20 -8 -44
1 -24 4 -42 9 -39 4 2 7 11 7 20 0 13 3 13 15 3 12 -10 15 -10 15 4 0 9 -5 16
-10 16 -6 0 -10 23 -9 55 2 40 6 55 16 55 8 0 11 5 8 10 -15 24 -35 9 -36 -27z"/>
<path d="M720 3810 c0 -17 6 -20 38 -19 30 2 32 3 10 6 -16 2 -28 11 -28 19 0
8 -4 14 -10 14 -5 0 -10 -9 -10 -20z"/>
<path d="M1290 3810 c0 -5 7 -10 15 -10 8 0 15 5 15 10 0 6 -7 10 -15 10 -8 0
-15 -4 -15 -10z"/>
<path d="M213 3770 c0 -25 2 -35 4 -22 2 12 9 22 14 22 5 0 9 5 9 11 0 5 -4 8
-9 4 -5 -3 -12 3 -14 12 -3 10 -5 -2 -4 -27z"/>
<path d="M930 3800 c0 -5 -13 -7 -30 -3 -19 3 -30 1 -30 -6 0 -6 9 -11 20 -11
11 0 20 -4 20 -9 0 -14 -48 -10 -54 5 -3 8 -11 14 -17 14 -8 0 -8 -4 1 -15 11
-13 8 -14 -21 -9 -32 6 -33 6 -14 -9 21 -17 45 -22 45 -9 0 4 9 8 19 8 16 0
19 -5 14 -31 -3 -16 -17 -40 -32 -51 -23 -19 -24 -24 -13 -48 16 -35 16 -36
-9 -36 -11 0 -17 -4 -14 -10 9 -14 19 -12 42 8 19 15 19 20 7 37 -16 22 -18
35 -4 35 6 0 10 -7 10 -15 0 -8 4 -15 9 -15 13 0 21 38 8 43 -7 2 -7 9 -2 18
5 8 8 21 7 30 -2 10 11 27 28 39 29 21 41 50 20 50 -5 0 -10 -4 -10 -10z"/>
<path d="M3 3767 c1 -15 5 -27 10 -27 10 0 9 22 -2 39 -7 10 -9 7 -8 -12z"/>
<path d="M1085 3780 c-3 -5 1 -10 9 -10 9 0 16 5 16 10 0 6 -4 10 -9 10 -6 0
-13 -4 -16 -10z"/>
<path d="M1761 3774 c0 -11 3 -14 6 -6 3 7 2 16 -1 19 -3 4 -6 -2 -5 -13z"/>
<path d="M1386 3764 c-4 -10 -1 -14 6 -12 15 5 23 28 10 28 -5 0 -13 -7 -16
-16z"/>
<path d="M424 3753 c-4 -10 -8 -21 -8 -25 -2 -18 -21 -7 -26 14 -4 16 -8 19
-14 10 -8 -13 -2 -42 16 -79 12 -24 31 -22 21 2 -3 8 0 15 7 15 8 0 11 -11 8
-30 -6 -39 13 -34 24 5 5 22 4 32 -7 38 -17 9 -20 37 -5 37 6 0 10 7 10 15 0
21 -16 19 -26 -2z"/>
<path d="M1425 3760 c-3 -5 -2 -10 4 -10 5 0 13 5 16 10 3 6 2 10 -4 10 -5 0
-13 -4 -16 -10z"/>
<path d="M1483 3753 c-13 -8 -23 -22 -23 -31 0 -10 8 -7 25 12 36 38 35 45 -2
19z"/>
<path d="M95 3750 c-3 -5 2 -10 12 -10 13 0 10 -4 -11 -15 -15 -8 -32 -12 -37
-9 -5 3 -9 -1 -9 -8 0 -7 -3 -23 -6 -35 -4 -15 -2 -23 6 -23 7 0 10 7 6 15 -7
18 22 48 37 38 8 -5 6 -9 -5 -11 -23 -4 -22 -8 2 -34 l20 -22 0 23 c0 17 4 21
19 16 28 -9 36 22 16 68 -8 18 -40 23 -50 7z m49 -39 c3 -5 -1 -12 -10 -15
-20 -8 -29 -1 -19 13 8 13 22 14 29 2z"/>
<path d="M1060 3750 c0 -5 5 -10 10 -10 6 0 10 5 10 10 0 6 -4 10 -10 10 -5 0
-10 -4 -10 -10z"/>
<path d="M1567 3746 c-4 -9 -2 -16 3 -16 5 0 12 -16 16 -35 3 -19 10 -35 16
-35 5 0 6 5 3 10 -3 6 -2 10 3 10 5 0 13 -10 17 -22 7 -22 7 -22 12 -3 6 22
21 35 42 35 7 0 11 -6 8 -14 -6 -15 40 -52 51 -42 3 3 -1 6 -8 6 -9 0 -5 8 10
22 15 14 25 18 27 11 3 -7 12 -4 24 8 24 24 18 39 -7 19 -13 -12 -17 -11 -25
1 -7 11 -9 11 -9 -3 0 -15 -27 -38 -44 -38 -10 0 -6 39 4 45 6 3 10 13 10 21
0 8 -5 12 -10 9 -6 -4 -8 -11 -5 -16 4 -5 -7 -9 -24 -9 -16 0 -32 6 -35 13 -3
6 -3 2 0 -10 10 -41 -37 -18 -63 31 -9 16 -11 16 -16 2z"/>
<path d="M230 3740 c0 -5 5 -10 11 -10 5 0 7 5 4 10 -3 6 -8 10 -11 10 -2 0
-4 -4 -4 -10z"/>
<path d="M326 3725 c3 -14 2 -25 -4 -25 -5 0 -13 -7 -16 -16 -4 -9 -2 -13 5
-8 8 4 9 -1 4 -16 -4 -14 -3 -20 3 -16 5 3 12 -1 15 -9 6 -13 -26 -32 -45 -27
-5 1 -8 -2 -8 -8 0 -5 5 -10 10 -10 6 0 11 -15 11 -32 1 -18 3 -25 6 -15 2 9
9 15 14 12 5 -4 9 -1 9 4 0 6 7 11 15 11 8 0 15 -4 15 -10 0 -5 5 -10 10 -10
19 0 10 17 -16 30 -22 12 -27 12 -34 0 -8 -13 -10 -13 -10 0 0 19 37 44 42 29
2 -6 13 -3 25 8 21 18 21 19 3 46 -10 17 -20 24 -24 18 -4 -6 2 -18 13 -28 21
-18 19 -33 -5 -33 -8 0 -14 7 -14 15 0 8 -4 15 -9 15 -20 0 -19 40 1 54 19 13
19 16 5 30 -22 23 -28 20 -21 -9z"/>
<path d="M1600 3740 c0 -5 5 -10 10 -10 6 0 10 5 10 10 0 6 -4 10 -10 10 -5 0
-10 -4 -10 -10z"/>
<path d="M794 3730 c3 -8 9 -23 12 -32 4 -10 10 -18 15 -18 17 0 9 27 -12 46
-15 13 -20 14 -15 4z"/>
<path d="M910 3730 c0 -5 5 -10 10 -10 6 0 10 5 10 10 0 6 -4 10 -10 10 -5 0
-10 -4 -10 -10z"/>
<path d="M1404 3729 c-4 -6 -20 -8 -40 -4 -44 8 -44 -7 -1 -23 44 -16 48 -15
40 4 -5 14 -1 16 20 12 22 -4 25 -3 16 8 -14 17 -25 18 -35 3z"/>
<path d="M1740 3732 c0 -4 10 -9 22 -9 18 -2 20 0 8 7 -18 12 -30 13 -30 2z"/>
<path d="M0 3720 c0 -5 6 -10 13 -10 8 0 7 -4 -3 -10 -13 -8 -13 -10 -1 -10
12 0 12 -3 3 -12 -15 -15 -16 -28 -2 -28 5 0 9 3 8 8 -1 4 4 20 10 35 15 37
15 37 -8 37 -11 0 -20 -4 -20 -10z"/>
<path d="M1500 3719 c0 -5 5 -7 10 -4 6 3 10 8 10 11 0 2 -4 4 -10 4 -5 0 -10
-5 -10 -11z"/>
<path d="M241 3704 c0 -11 3 -14 6 -6 3 7 2 16 -1 19 -3 4 -6 -2 -5 -13z"/>
<path d="M1042 3700 c0 -14 2 -19 5 -12 2 6 2 18 0 25 -3 6 -5 1 -5 -13z"/>
<path d="M1066 3711 c-4 -7 -5 -15 -2 -18 9 -9 19 4 14 18 -4 11 -6 11 -12 0z"/>
<path d="M1480 3714 c0 -3 5 -15 12 -27 10 -20 10 -21 -5 -8 -10 7 -17 10 -17
7 0 -4 -10 -2 -22 4 l-23 11 23 -17 c14 -10 23 -28 23 -48 1 -23 3 -25 6 -8 5
27 10 28 32 0 12 -15 20 -18 25 -10 4 7 0 15 -9 18 -12 5 -13 9 -4 20 9 11 6
19 -15 39 -14 13 -26 22 -26 19z"/>
<path d="M546 3701 c-4 -6 -23 -11 -42 -11 -19 0 -34 -5 -34 -11 0 -6 9 -8 22
-3 21 6 22 5 8 -11 -14 -17 -13 -18 4 -12 12 5 22 3 27 -5 4 -7 11 -9 15 -5 4
3 1 13 -6 22 -7 8 -8 15 -3 15 5 0 17 -16 26 -35 20 -43 21 -46 5 -42 -8 1
-14 -12 -16 -33 -2 -19 0 -31 4 -27 4 4 14 -3 21 -15 12 -23 12 -23 14 7 3 60
7 77 16 84 21 13 22 52 1 73 -22 22 -34 18 -24 -7 3 -9 10 -13 16 -10 13 8 13
-15 0 -35 -11 -17 -13 -16 -32 34 -9 23 -18 34 -22 27z m34 -126 c0 -8 -4 -15
-10 -15 -5 0 -7 7 -4 15 4 8 8 15 10 15 2 0 4 -7 4 -15z"/>
<path d="M1156 3689 c-25 -25 -5 -25 25 1 17 13 19 19 9 19 -8 0 -24 -9 -34
-20z"/>
<path d="M1220 3686 c0 -8 -9 -18 -20 -21 -21 -7 -28 -25 -10 -25 6 0 10 4 10
8 0 5 12 14 26 20 14 7 22 17 19 22 -9 15 -25 12 -25 -4z"/>
<path d="M1317 3693 c-9 -2 -15 -9 -11 -14 3 -5 9 -7 13 -4 5 2 6 -8 3 -23 -4
-26 -4 -26 11 -8 14 19 15 19 22 -12 6 -28 21 -50 29 -41 2 2 6 17 10 32 4 19
3 26 -4 22 -5 -3 -10 -16 -11 -28 l0 -22 -9 22 c-5 13 -11 35 -13 50 -4 28
-11 33 -40 26z"/>
<path d="M1720 3690 c0 -5 5 -10 10 -10 6 0 10 5 10 10 0 6 -4 10 -10 10 -5 0
-10 -4 -10 -10z"/>
<path d="M782 3681 c-20 -12 -42 -60 -31 -66 5 -4 9 0 9 7 0 8 10 22 21 32 22
18 22 18 16 -5 -4 -13 -7 -30 -7 -36 0 -7 -8 -13 -17 -14 -11 0 -13 -3 -5 -6
19 -7 14 -23 -7 -23 -10 0 -22 -7 -25 -16 -8 -22 -8 -26 3 -20 5 4 12 0 14 -6
3 -7 6 -3 6 10 1 21 31 33 31 12 0 -5 8 -6 17 -3 11 4 12 8 5 11 -19 6 -14 42
6 43 10 0 12 3 5 6 -7 2 -13 17 -13 31 0 35 -12 53 -28 43z"/>
<path d="M188 3661 c-19 -18 -25 -61 -9 -61 5 0 8 8 7 18 0 9 5 16 12 15 6 -2
12 1 12 6 0 5 3 16 6 25 8 21 -7 19 -28 -3z"/>
<path d="M1065 3670 c-3 -5 3 -10 14 -10 12 0 21 -7 21 -15 0 -8 6 -12 14 -9
12 5 12 9 -2 25 -18 21 -37 25 -47 9z"/>
<path d="M1236 3655 c-15 -14 -37 -25 -48 -25 -21 0 -21 0 -2 -19 22 -21 36
-18 27 6 -4 11 -2 14 8 11 8 -3 13 -11 11 -17 -1 -7 2 -10 7 -7 5 3 7 15 4 26
-4 13 0 20 10 20 8 0 17 7 21 15 8 22 -8 18 -38 -10z"/>
<path d="M1390 3669 c0 -5 5 -7 10 -4 6 3 10 8 10 11 0 2 -4 4 -10 4 -5 0 -10
-5 -10 -11z"/>
<path d="M1421 3659 c0 -15 5 -31 12 -37 9 -8 12 -4 14 15 1 17 -2 22 -7 13
-6 -10 -9 -6 -13 11 -4 24 -4 23 -6 -2z"/>
<path d="M234 3655 c-4 -9 -4 -27 -2 -40 3 -14 1 -25 -3 -25 -19 0 -8 -16 12
-17 16 -2 20 3 16 18 -3 12 -1 17 6 12 7 -4 8 0 4 11 -4 10 -7 21 -7 24 0 4
-5 0 -11 -8 -8 -12 -9 -9 -5 13 7 29 -1 37 -10 12z"/>
<path d="M713 3650 c-1 -11 2 -18 8 -15 11 7 12 35 1 35 -4 0 -8 -9 -9 -20z"/>
<path d="M271 3644 c0 -11 3 -14 6 -6 3 7 2 16 -1 19 -3 4 -6 -2 -5 -13z"/>
<path d="M464 3635 c0 -14 7 -25 14 -25 13 0 15 10 6 34 -9 25 -22 19 -20 -9z"/>
<path d="M640 3640 c0 -11 7 -20 16 -20 8 0 12 5 9 10 -3 6 -1 10 4 10 6 0 11
5 11 10 0 6 -9 10 -20 10 -13 0 -20 -7 -20 -20z"/>
<path d="M1274 3649 c-4 -7 1 -16 10 -21 9 -5 16 -16 16 -25 0 -14 2 -15 13
-4 10 11 10 14 0 18 -7 3 -13 13 -13 24 0 21 -15 25 -26 8z"/>
<path d="M1660 3646 c0 -10 4 -15 9 -12 5 4 12 0 14 -6 4 -8 6 -9 6 -2 1 6 -6
17 -14 24 -12 10 -15 9 -15 -4z"/>
<path d="M130 3641 c0 -15 -41 -20 -66 -9 -29 14 -48 0 -38 -27 7 -17 8 -17
15 2 7 20 10 20 44 9 20 -7 45 -20 55 -28 16 -14 18 -14 18 8 0 13 -5 24 -10
24 -6 0 -8 7 -4 15 3 8 1 15 -4 15 -6 0 -10 -4 -10 -9z"/>
<path d="M291 3634 c0 -11 3 -14 6 -6 3 7 2 16 -1 19 -3 4 -6 -2 -5 -13z"/>
<path d="M1760 3633 c11 -16 17 -19 27 -11 7 6 13 16 13 22 0 6 -4 5 -9 -3 -8
-13 -12 -13 -27 0 -16 13 -16 12 -4 -8z"/>
<path d="M1575 3628 c-10 -25 51 -118 76 -118 10 1 9 5 -4 14 -15 12 -16 15
-2 26 13 10 19 10 33 -4 27 -24 30 -20 18 19 -6 19 -17 35 -25 35 -12 0 -12
-3 -3 -12 17 -17 15 -23 -5 -25 -10 -1 -27 -3 -38 -5 -30 -5 -32 50 -2 62 16
6 17 9 5 9 -9 1 -23 4 -32 7 -9 3 -18 0 -21 -8z"/>
<path d="M930 3600 c0 -11 5 -20 11 -20 5 0 7 5 4 10 -3 6 1 10 10 10 9 0 13
5 10 10 -11 18 -35 11 -35 -10z"/>
<path d="M1090 3610 c0 -5 5 -10 10 -10 6 0 10 5 10 10 0 6 -4 10 -10 10 -5 0
-10 -4 -10 -10z"/>
<path d="M1140 3609 c0 -5 5 -7 10 -4 6 3 10 8 10 11 0 2 -4 4 -10 4 -5 0 -10
-5 -10 -11z"/>
<path d="M1340 3615 c-1 -5 -2 -14 -1 -19 1 -5 -3 -12 -10 -16 -6 -4 -9 -14
-7 -21 7 -20 30 27 25 49 -3 9 -6 13 -7 7z"/>
<path d="M1700 3609 c0 -5 5 -7 10 -4 6 3 10 8 10 11 0 2 -4 4 -10 4 -5 0 -10
-5 -10 -11z"/>
<path d="M3815 3606 c-13 -14 -8 -46 7 -46 6 0 17 -8 25 -17 14 -17 14 -17 9
0 -3 10 -6 23 -6 28 0 6 -4 7 -10 4 -5 -3 -10 -2 -10 4 0 5 5 11 11 13 8 3 7
7 -2 15 -10 8 -17 8 -24 -1z"/>
<path d="M0 3600 c0 -5 5 -10 11 -10 5 0 7 5 4 10 -3 6 -8 10 -11 10 -2 0 -4
-4 -4 -10z"/>
<path d="M50 3586 c0 -14 7 -32 16 -40 10 -11 11 -16 3 -16 -8 0 -6 -7 6 -20
19 -21 35 -18 35 5 0 9 -6 12 -17 8 -10 -4 -14 -2 -10 4 4 6 0 16 -7 22 -8 7
-13 23 -11 36 1 14 -2 25 -6 25 -5 0 -9 -11 -9 -24z"/>
<path d="M397 3603 c-14 -13 -7 -23 16 -23 16 0 18 3 8 9 -11 7 -11 9 0 14 11
4 10 6 -2 6 -9 1 -19 -2 -22 -6z"/>
<path d="M895 3600 c3 -6 1 -10 -4 -10 -6 0 -11 -4 -11 -9 0 -12 33 -7 37 6 2
6 -3 13 -12 17 -9 3 -13 2 -10 -4z"/>
<path d="M1727 3603 c-4 -3 -7 -11 -7 -17 0 -6 5 -5 12 2 6 6 9 14 7 17 -3 3
-9 2 -12 -2z"/>
<path d="M1788 3603 c-21 -5 -24 -23 -4 -23 8 0 16 7 20 15 3 8 4 14 3 14 -1
-1 -10 -3 -19 -6z"/>
<path d="M87 3588 c-2 -7 0 -21 5 -31 9 -18 10 -18 23 0 9 13 10 22 3 30 -13
16 -25 16 -31 1z m23 -8 c0 -5 -5 -10 -11 -10 -5 0 -7 5 -4 10 3 6 8 10 11 10
2 0 4 -4 4 -10z"/>
<path d="M450 3590 c0 -5 5 -10 10 -10 6 0 10 5 10 10 0 6 -4 10 -10 10 -5 0
-10 -4 -10 -10z"/>
<path d="M654 3583 c-3 -10 -10 -28 -15 -41 -5 -13 -9 -30 -9 -39 0 -31 23 3
30 44 3 21 11 37 18 36 7 -2 12 2 12 7 0 17 -30 11 -36 -7z"/>
<path d="M1000 3585 c0 -8 7 -15 16 -15 14 0 14 3 4 15 -7 8 -14 15 -16 15 -2
0 -4 -7 -4 -15z"/>
<path d="M1055 3590 c3 -5 8 -10 11 -10 2 0 4 5 4 10 0 6 -5 10 -11 10 -5 0
-7 -4 -4 -10z"/>
<path d="M1415 3590 c-3 -6 3 -10 13 -10 25 0 53 -31 35 -37 -17 -6 -17 -20 0
-26 8 -3 14 5 15 24 2 22 -4 32 -27 44 -19 9 -32 11 -36 5z"/>
<path d="M1517 3583 c5 -12 2 -15 -10 -10 -9 3 -17 2 -17 -3 0 -6 5 -10 11
-10 6 0 8 -7 5 -16 -5 -13 -2 -15 13 -11 11 3 25 -1 32 -9 6 -8 19 -13 28 -13
14 1 14 2 -1 6 -12 3 -16 12 -14 31 2 15 1 19 -1 10 -5 -21 -12 -22 -33 -7
-11 7 -12 12 -3 15 13 6 6 34 -8 34 -4 0 -5 -8 -2 -17z"/>
<path d="M717 3583 c-4 -3 -7 -13 -7 -22 1 -13 3 -13 11 2 11 19 8 33 -4 20z"/>
<path d="M970 3583 c8 -3 7 -9 -1 -19 -10 -12 -9 -13 5 -8 18 7 17 26 -2 30
-7 1 -8 0 -2 -3z"/>
<path d="M1092 3565 c0 -16 2 -22 5 -12 2 9 2 23 0 30 -3 6 -5 -1 -5 -18z"/>
<path d="M1111 3563 c0 -27 1 -27 9 -5 10 25 20 28 38 10 9 -9 12 -8 12 5 0
12 -8 17 -30 17 -26 0 -30 -3 -29 -27z"/>
<path d="M3940 3579 c0 -6 -9 -8 -20 -4 -23 7 -24 6 -10 -29 5 -15 6 -26 0
-26 -4 0 -11 8 -13 18 -3 9 -5 0 -6 -20 -1 -29 3 -38 15 -38 10 0 14 5 10 16
-3 9 -2 12 5 9 6 -4 8 -13 5 -21 -3 -8 1 -14 9 -14 8 0 15 -4 15 -10 0 -5 -5
-10 -11 -10 -13 0 -6 -25 7 -26 5 0 17 -4 27 -9 10 -4 21 -4 25 0 4 4 1 10 -6
12 -6 3 -10 9 -6 14 3 5 1 9 -4 9 -5 0 -12 9 -15 21 -3 12 -10 18 -15 15 -5
-3 -12 3 -15 14 -3 13 0 20 10 20 8 0 11 -4 8 -10 -3 -5 -1 -10 5 -10 6 0 10
6 8 14 -2 8 6 21 16 29 26 19 14 47 -19 47 -14 0 -25 -5 -25 -11z m20 -31
c-22 -23 -34 -21 -24 6 3 9 15 16 25 16 19 0 19 -1 -1 -22z"/>
<path d="M10 3570 c0 -5 7 -10 15 -10 8 0 15 5 15 10 0 6 -7 10 -15 10 -8 0
-15 -4 -15 -10z"/>
<path d="M181 3537 c1 -26 6 -47 11 -47 8 0 0 79 -9 89 -2 3 -3 -16 -2 -42z"/>
<path d="M488 3573 c7 -3 16 -2 19 1 4 3 -2 6 -13 5 -11 0 -14 -3 -6 -6z"/>
<path d="M1742 3568 c-7 -7 -12 -20 -12 -30 0 -12 -8 -18 -22 -19 -22 0 -22
-1 -3 -9 31 -13 33 -12 45 26 13 39 10 50 -8 32z"/>
<path d="M611 3554 c0 -11 3 -14 6 -6 3 7 2 16 -1 19 -3 4 -6 -2 -5 -13z"/>
<path d="M1355 3560 c-7 -12 12 -50 26 -50 6 0 3 7 -6 16 -9 9 -14 23 -11 30
6 16 0 19 -9 4z"/>
<path d="M1390 3556 c0 -9 5 -16 10 -16 6 0 10 4 10 9 0 6 -4 13 -10 16 -5 3
-10 -1 -10 -9z"/>
<path d="M1926 3555 c4 -8 17 -18 30 -21 13 -3 22 -10 19 -14 -3 -5 4 -6 15
-3 11 3 17 9 14 14 -3 5 -9 7 -14 4 -5 -3 -15 3 -22 15 -15 24 -50 28 -42 5z"/>
<path d="M2160 3561 c0 -5 -11 -12 -25 -15 -14 -4 -25 -11 -25 -16 0 -14 13
-13 28 2 9 9 12 9 12 0 0 -7 -4 -12 -9 -12 -5 0 -9 -13 -9 -30 1 -43 14 -37
22 9 3 21 13 41 21 45 19 7 19 26 0 26 -8 0 -15 -4 -15 -9z"/>
<path d="M126 3553 c-8 -9 -7 -26 3 -42 8 -12 12 -11 28 4 17 18 17 18 -4 13
-15 -4 -23 -2 -23 7 0 8 8 11 20 8 11 -3 20 -1 20 4 0 10 -35 15 -44 6z"/>
<path d="M212 3548 c-14 -14 -16 -28 -3 -28 5 0 11 9 14 20 6 23 5 24 -11 8z"/>
<path d="M499 3555 c-6 -3 -5 -35 2 -35 5 0 9 5 9 10 0 6 4 10 9 10 5 0 8 -8
7 -17 -2 -12 -12 -18 -27 -18 -15 0 -25 -7 -27 -17 -4 -19 13 -25 23 -8 3 6
11 10 16 10 6 0 7 -4 4 -10 -3 -5 1 -10 10 -10 9 0 13 5 10 11 -4 5 1 20 12
31 10 12 12 18 6 14 -9 -5 -13 -1 -13 11 0 15 -25 26 -41 18z"/>
<path d="M677 3533 c-7 -39 5 -60 23 -38 7 8 10 19 6 22 -4 4 -11 1 -16 -7 -6
-8 -10 -10 -10 -4 0 5 5 15 12 22 9 9 9 15 1 23 -7 7 -12 2 -16 -18z"/>
<path d="M900 3550 c0 -5 5 -10 10 -10 6 0 10 5 10 10 0 6 -4 10 -10 10 -5 0
-10 -4 -10 -10z"/>
<path d="M930 3549 c0 -5 5 -7 10 -4 6 3 10 8 10 11 0 2 -4 4 -10 4 -5 0 -10
-5 -10 -11z"/>
<path d="M1010 3550 c0 -6 7 -10 15 -10 8 0 15 2 15 4 0 2 -7 6 -15 10 -8 3
-15 1 -15 -4z"/>
<path d="M1205 3550 c3 -5 15 -10 26 -10 11 0 17 5 14 10 -3 6 -15 10 -26 10
-11 0 -17 -4 -14 -10z"/>
<path d="M1432 3540 c0 -14 2 -19 5 -12 2 6 2 18 0 25 -3 6 -5 1 -5 -13z"/>
<path d="M2070 3540 c0 -11 -5 -20 -11 -20 -5 0 -7 -5 -3 -11 5 -9 -3 -10 -30
-5 -22 4 -36 3 -36 -3 0 -6 7 -7 17 -4 12 5 14 3 8 -7 -6 -10 -4 -12 11 -6 10
4 32 10 49 13 23 5 25 8 11 13 -17 6 -17 7 -2 22 20 21 20 28 1 28 -8 0 -15
-9 -15 -20z"/>
<path d="M0 3529 c0 -24 23 -21 28 4 2 10 -3 17 -12 17 -10 0 -16 -9 -16 -21z"/>
<path d="M244 3538 c-7 -10 4 -28 17 -28 6 0 7 5 4 10 -3 6 1 10 9 10 9 0 16
4 16 9 0 11 -39 10 -46 -1z"/>
<path d="M445 3540 c3 -5 11 -10 16 -10 6 0 7 5 4 10 -3 6 -11 10 -16 10 -6 0
-7 -4 -4 -10z"/>
<path d="M835 3540 c3 -5 10 -10 16 -10 5 0 9 5 9 10 0 6 -7 10 -16 10 -8 0
-12 -4 -9 -10z"/>
<path d="M1059 3543 c-1 -5 -1 -12 0 -17 1 -4 -9 -6 -23 -2 -14 3 -28 2 -31
-4 -5 -8 15 -13 41 -9 4 0 11 -5 15 -13 6 -9 9 -2 9 20 0 28 -8 46 -11 25z"/>
<path d="M1144 3539 c-3 -6 -1 -16 5 -22 8 -8 11 -5 11 11 0 24 -5 28 -16 11z"/>
<path d="M1891 3541 c-7 -5 -23 -7 -35 -4 -11 2 -6 -3 13 -11 35 -17 51 -14
51 10 0 16 -9 18 -29 5z"/>
<path d="M3871 3534 c0 -11 3 -14 6 -6 3 7 2 16 -1 19 -3 4 -6 -2 -5 -13z"/>
<path d="M944 3530 c-12 -5 -25 -13 -29 -19 -9 -15 -5 -14 40 9 39 20 30 27
-11 10z"/>
<path d="M1313 3526 c6 -14 3 -15 -13 -6 -11 6 -20 7 -20 1 0 -13 27 -22 45
-14 18 6 15 25 -5 31 -9 3 -11 -1 -7 -12z"/>
<path d="M324 3519 c-3 -6 0 -15 7 -20 22 -14 29 -11 29 11 0 21 -24 27 -36 9z"/>
<path d="M387 3523 c-10 -9 -9 -33 1 -33 4 0 8 9 9 20 2 21 0 24 -10 13z"/>
<path d="M417 3523 c-12 -11 -8 -23 8 -23 8 0 15 -7 15 -17 0 -9 2 -14 5 -11
8 7 -5 58 -14 58 -4 0 -11 -3 -14 -7z"/>
<path d="M1200 3515 c7 -8 17 -15 22 -15 6 0 5 7 -2 15 -7 8 -17 15 -22 15 -6
0 -5 -7 2 -15z"/>
<path d="M3981 3511 c-8 -14 -7 -22 3 -30 10 -9 13 -5 12 19 -1 35 -2 36 -15
11z"/>
<path d="M284 3490 c-5 -21 -12 -30 -26 -30 -17 0 -18 -3 -8 -15 10 -12 10
-15 -4 -15 -9 0 -16 -4 -16 -10 0 -5 -12 -7 -27 -4 -30 5 -63 -10 -50 -23 5
-4 12 -1 17 7 16 25 45 -2 44 -39 -1 -17 2 -31 6 -31 16 0 20 18 10 44 -8 23
-7 28 15 38 14 6 27 19 30 30 4 10 15 18 26 18 10 0 19 5 19 10 0 6 -5 10 -11
10 -6 0 -8 9 -4 20 4 12 2 20 -5 20 -6 0 -13 -13 -16 -30z"/>
<path d="M1080 3505 c0 -8 5 -15 10 -15 6 0 10 7 10 15 0 8 -4 15 -10 15 -5 0
-10 -7 -10 -15z"/>
<path d="M1833 3505 c0 -8 4 -12 9 -9 4 3 8 9 8 15 0 5 -4 9 -8 9 -5 0 -9 -7
-9 -15z"/>
<path d="M3760 3504 c0 -8 -4 -12 -10 -9 -17 11 -32 -5 -19 -21 9 -11 9 -14
-1 -14 -7 0 -10 -7 -6 -16 4 -11 2 -15 -8 -11 -19 8 -28 -29 -10 -44 11 -9 18
-8 29 1 9 7 19 9 23 5 4 -4 1 -10 -5 -12 -7 -3 -13 -9 -13 -14 0 -16 25 -5 32
14 9 22 28 13 28 -13 0 -14 5 -17 22 -12 12 3 17 7 11 9 -7 3 -9 11 -6 19 4
10 -2 17 -16 21 -12 3 -24 16 -27 30 -5 19 -9 22 -16 11 -6 -8 -7 2 -3 30 4
23 4 42 1 42 -3 0 -6 -7 -6 -16z m20 -94 c0 -14 -14 -12 -28 2 -19 19 -14 30
8 18 11 -6 20 -15 20 -20z m-50 0 c0 -5 -4 -10 -10 -10 -5 0 -10 5 -10 10 0 6
5 10 10 10 6 0 10 -4 10 -10z"/>
<path d="M3782 3500 c0 -14 2 -19 5 -12 2 6 2 18 0 25 -3 6 -5 1 -5 -13z"/>
<path d="M38 3503 c7 -3 16 -2 19 1 4 3 -2 6 -13 5 -11 0 -14 -3 -6 -6z"/>
<path d="M741 3496 c-7 -9 -18 -13 -23 -10 -6 4 -4 -4 3 -17 7 -13 12 -27 11
-31 -1 -5 5 -8 13 -8 13 0 13 3 3 20 -11 17 -10 22 1 29 7 5 12 14 9 21 -3 9
-7 8 -17 -4z"/>
<path d="M970 3499 c0 -5 5 -7 10 -4 6 3 10 8 10 11 0 2 -4 4 -10 4 -5 0 -10
-5 -10 -11z"/>
<path d="M1757 3503 c-4 -3 -7 -14 -7 -23 0 -17 36 -25 45 -9 4 5 -4 9 -15 9
-16 0 -20 5 -16 15 6 16 3 19 -7 8z"/>
<path d="M1926 3493 c-6 -14 -5 -15 5 -6 7 7 10 15 7 18 -3 3 -9 -2 -12 -12z"/>
<path d="M240 3490 c0 -5 7 -10 15 -10 8 0 15 5 15 10 0 6 -7 10 -15 10 -8 0
-15 -4 -15 -10z"/>
<path d="M565 3490 c3 -5 8 -10 11 -10 2 0 4 5 4 10 0 6 -5 10 -11 10 -5 0 -7
-4 -4 -10z"/>
<path d="M595 3490 c-3 -5 -1 -10 4 -10 6 0 11 5 11 10 0 6 -2 10 -4 10 -3 0
-8 -4 -11 -10z"/>
<path d="M896 3482 c19 -22 54 -22 54 -1 0 14 -18 11 -23 -3 -3 -9 -11 -8 -28
7 l-24 19 21 -22z"/>
<path d="M1115 3489 c-11 -17 1 -21 15 -4 8 9 8 15 2 15 -6 0 -14 -5 -17 -11z"/>
<path d="M1155 3475 c0 -19 6 -27 25 -32 14 -3 30 -9 35 -13 6 -4 21 0 35 7
23 14 24 14 3 10 -13 -3 -23 -1 -23 4 0 6 -10 20 -21 32 l-21 22 7 -22 c5 -17
2 -23 -9 -23 -9 0 -16 9 -16 20 0 11 -3 20 -7 20 -5 0 -8 -11 -8 -25z"/>
<path d="M1455 3488 c18 -11 20 -42 3 -35 -7 2 -22 0 -33 -5 -18 -8 -18 -8 2
-4 13 2 26 0 29 -5 3 -5 10 -9 15 -9 6 0 8 4 4 10 -3 5 3 18 15 30 11 11 20
21 20 23 0 2 -16 3 -35 3 -25 0 -31 -3 -20 -8z"/>
<path d="M1525 3490 c-3 -5 1 -10 9 -10 9 0 16 5 16 10 0 6 -4 10 -9 10 -6 0
-13 -4 -16 -10z"/>
<path d="M1610 3490 c-13 -8 -12 -10 3 -10 22 0 23 -36 0 -49 -10 -5 -15 -12
-12 -16 4 -3 14 1 23 10 15 15 16 15 16 -5 0 -19 4 -21 43 -16 23 3 43 5 45 5
1 1 2 6 2 12 0 6 -9 8 -20 4 -13 -4 -20 -2 -20 7 0 10 -3 9 -10 -2 -6 -10 -10
-11 -10 -2 0 6 -7 12 -15 12 -8 0 -12 6 -9 13 8 21 -19 48 -36 37z"/>
<path d="M1868 3494 c-11 -16 -6 -66 5 -55 5 5 7 21 5 37 -2 17 -6 24 -10 18z"/>
<path d="M160 3481 c0 -4 5 -12 11 -18 8 -8 6 -13 -9 -17 -24 -8 -60 -46 -43
-46 6 0 14 6 17 14 3 8 19 20 35 26 33 14 38 35 9 43 -11 3 -20 2 -20 -2z"/>
<path d="M210 3481 c0 -6 4 -13 10 -16 6 -3 7 1 4 9 -7 18 -14 21 -14 7z"/>
<path d="M642 3470 c-6 -11 -8 -21 -3 -25 5 -3 13 4 16 16 9 28 2 33 -13 9z"/>
<path d="M786 3481 c-3 -5 1 -11 9 -14 9 -4 12 -1 8 9 -6 16 -10 17 -17 5z"/>
<path d="M845 3479 c4 -6 -1 -17 -11 -24 -15 -11 -16 -14 -4 -15 17 0 42 34
33 44 -11 10 -25 7 -18 -5z"/>
<path d="M1000 3479 c0 -5 5 -7 10 -4 6 3 10 8 10 11 0 2 -4 4 -10 4 -5 0 -10
-5 -10 -11z"/>
<path d="M1254 3475 c10 -8 24 -12 29 -8 6 4 8 0 4 -10 -7 -19 -6 -20 17 -11
20 8 21 24 1 24 -8 0 -15 6 -15 13 0 8 -4 7 -10 -3 -6 -10 -10 -11 -10 -2 0 6
-8 12 -17 12 -17 -1 -16 -2 1 -15z"/>
<path d="M1960 3480 c0 -5 5 -10 10 -10 6 0 10 5 10 10 0 6 -4 10 -10 10 -5 0
-10 -4 -10 -10z"/>
<path d="M30 3470 c0 -5 7 -7 15 -4 8 4 15 2 15 -4 0 -18 -49 -21 -53 -3 -3 9
-4 1 -3 -16 1 -32 16 -48 16 -17 0 12 7 14 29 9 26 -6 28 -4 24 19 -4 17 -12
26 -24 26 -11 0 -19 -4 -19 -10z"/>
<path d="M88 3473 c7 -3 16 -2 19 1 4 3 -2 6 -13 5 -11 0 -14 -3 -6 -6z"/>
<path d="M130 3470 c0 -5 5 -10 11 -10 5 0 7 5 4 10 -3 6 -8 10 -11 10 -2 0
-4 -4 -4 -10z"/>
<path d="M400 3470 c0 -6 -4 -9 -9 -5 -5 3 -13 0 -17 -6 -5 -9 0 -10 15 -6 17
4 21 2 17 -9 -4 -10 3 -14 30 -14 19 0 33 4 30 9 -3 5 -15 7 -26 4 -14 -4 -20
0 -20 10 0 9 -4 19 -10 22 -5 3 -10 1 -10 -5z"/>
<path d="M1690 3464 c0 -10 6 -14 15 -10 8 3 15 1 15 -5 0 -6 5 -7 12 -3 7 5
5 11 -7 21 -25 17 -35 17 -35 -3z"/>
<path d="M2095 3470 c3 -5 8 -10 11 -10 2 0 4 5 4 10 0 6 -5 10 -11 10 -5 0
-7 -4 -4 -10z"/>
<path d="M3854 3459 c0 -14 5 -19 18 -16 10 3 16 1 13 -3 -3 -5 -1 -12 5 -15
7 -4 9 -25 5 -53 -5 -37 -4 -43 5 -29 9 15 14 16 26 6 11 -9 18 -9 26 -1 9 9
4 13 -20 18 -26 5 -30 9 -22 24 6 11 5 21 -3 30 -9 10 -9 14 1 17 19 7 14 23
-7 23 -11 0 -23 5 -26 10 -10 17 -21 11 -21 -11z"/>
<path d="M560 3462 c0 -6 -8 -12 -17 -14 -15 -3 -14 -5 5 -10 14 -4 20 -2 15
5 -4 7 0 8 11 4 11 -5 16 -3 14 5 -5 15 -28 23 -28 10z"/>
<path d="M1028 3459 c-10 -5 -18 -17 -18 -25 0 -8 5 -12 10 -9 6 4 7 11 4 17
-5 7 -1 9 9 5 11 -4 17 -1 17 8 0 17 0 17 -22 4z"/>
<path d="M1071 3454 c0 -11 3 -14 6 -6 3 7 2 16 -1 19 -3 4 -6 -2 -5 -13z"/>
<path d="M1092 3450 c0 -14 2 -19 5 -12 2 6 2 18 0 25 -3 6 -5 1 -5 -13z"/>
<path d="M1357 3459 c7 -7 15 -10 18 -7 3 3 -2 9 -12 12 -14 6 -15 5 -6 -5z"/>
<path d="M1583 3458 c3 -9 1 -19 -6 -22 -9 -3 -9 -5 0 -5 18 -1 27 19 13 32
-10 9 -12 8 -7 -5z"/>
<path d="M2028 3463 c6 -2 18 -2 25 0 6 3 1 5 -13 5 -14 0 -19 -2 -12 -5z"/>
<path d="M2153 3444 c-6 -13 -7 -24 -3 -24 9 0 25 39 18 45 -2 2 -8 -7 -15
-21z"/>
<path d="M616 3425 c3 -22 8 -43 11 -48 7 -12 23 3 22 21 0 14 -2 13 -9 -3 -8
-18 -9 -18 -10 5 -1 14 -6 34 -11 45 -7 14 -8 9 -3 -20z"/>
<path d="M670 3460 c-1 -3 -3 -21 -5 -40 -3 -26 -2 -30 5 -15 l9 20 1 -20 1
-20 9 20 9 20 1 -20 c1 -18 2 -17 11 4 6 16 6 28 0 34 -7 7 -13 4 -18 -9 -6
-17 -8 -17 -14 6 -4 14 -8 23 -9 20z"/>
<path d="M872 3448 c-17 -17 -15 -35 4 -42 20 -8 29 -1 19 13 -3 6 -11 8 -17
5 -6 -4 -6 2 1 15 13 24 11 27 -7 9z"/>
<path d="M930 3453 c-35 -7 -49 -23 -16 -19 15 1 32 8 38 14 7 7 10 11 8 11
-3 -1 -16 -4 -30 -6z"/>
<path d="M1810 3450 c0 -5 7 -10 16 -10 8 0 12 5 9 10 -3 6 -10 10 -16 10 -5
0 -9 -4 -9 -10z"/>
<path d="M1942 3448 c5 -15 28 -23 28 -10 0 5 -7 13 -16 16 -10 4 -14 1 -12
-6z"/>
<path d="M2070 3450 c0 -5 5 -10 11 -10 5 0 7 5 4 10 -3 6 -8 10 -11 10 -2 0
-4 -4 -4 -10z"/>
<path d="M205 3440 c-3 -5 -1 -10 4 -10 6 0 11 5 11 10 0 6 -2 10 -4 10 -3 0
-8 -4 -11 -10z"/>
<path d="M317 3444 c-4 -4 -7 -12 -7 -18 0 -6 5 -4 10 4 8 12 10 11 10 -7 0
-20 -4 -22 -30 -16 -20 3 -30 1 -30 -6 0 -21 64 -9 68 13 4 20 -10 40 -21 30z"/>
<path d="M785 3440 c3 -5 8 -10 11 -10 2 0 4 5 4 10 0 6 -5 10 -11 10 -5 0 -7
-4 -4 -10z"/>
<path d="M1330 3440 c0 -5 5 -12 10 -15 6 -4 8 -10 5 -15 -3 -4 1 -10 8 -13 7
-3 12 4 12 19 0 13 -7 25 -17 28 -10 2 -18 0 -18 -4z"/>
<path d="M1756 3442 c-2 -4 -1 -14 5 -22 7 -13 9 -12 9 2 0 12 5 15 17 11 11
-4 14 -3 9 5 -8 14 -32 16 -40 4z"/>
<path d="M1902 3430 c-16 -15 -29 -19 -49 -14 -21 4 -24 3 -13 -5 12 -8 12
-13 -4 -30 -11 -12 -14 -21 -8 -21 7 0 12 5 12 11 0 5 4 8 9 4 6 -3 13 0 18 7
4 7 20 19 36 27 15 8 27 20 27 28 0 17 -2 17 -28 -7z"/>
<path d="M376 3407 c-5 -21 -6 -41 -2 -44 3 -4 6 1 6 10 0 10 3 16 8 15 17 -5
92 13 92 22 0 13 -17 13 -25 0 -3 -5 -19 -10 -35 -10 -22 0 -30 5 -32 23 -3
17 -6 13 -12 -16z"/>
<path d="M1147 3421 c3 -12 10 -21 15 -21 13 0 6 32 -9 37 -7 3 -9 -3 -6 -16z"/>
<path d="M2011 3424 c13 -16 39 -19 39 -5 0 5 -11 11 -25 13 -20 4 -23 3 -14
-8z"/>
<path d="M2084 3419 c-10 -13 -13 -19 -6 -15 7 4 12 1 12 -8 0 -24 17 -19 24
6 8 33 -8 42 -30 17z"/>
<path d="M1116 3413 c-6 -14 -5 -15 5 -6 7 7 10 15 7 18 -3 3 -9 -2 -12 -12z"/>
<path d="M3858 3423 c-5 -29 -3 -91 4 -87 7 5 13 -19 9 -40 -1 -4 4 -14 10
-22 8 -10 8 -18 1 -27 -16 -19 -8 -52 14 -55 15 -2 16 -1 5 7 -12 8 -13 14 -3
35 6 14 17 26 24 27 7 1 2 4 -11 8 -14 4 -26 12 -27 19 -1 7 0 8 3 2 6 -12 33
-13 33 -1 0 5 -8 11 -18 14 -11 2 -22 17 -25 33 -4 16 -10 40 -13 53 -5 17 -4
22 4 17 7 -4 12 -3 12 3 0 12 -19 25 -22 14z"/>
<path d="M592 3400 c0 -14 2 -19 5 -12 2 6 2 18 0 25 -3 6 -5 1 -5 -13z"/>
<path d="M748 3413 c-10 -2 -18 -9 -18 -14 0 -14 20 -11 36 6 16 15 13 16 -18
8z"/>
<path d="M1036 3411 c-4 -5 -3 -16 0 -24 5 -14 8 -14 24 1 11 8 17 19 14 24
-7 11 -31 10 -38 -1z"/>
<path d="M30 3396 c0 -10 5 -14 12 -10 8 5 9 0 6 -14 -6 -23 7 -31 15 -9 3 10
9 10 26 0 30 -19 37 -16 16 7 -10 11 -22 17 -27 14 -5 -3 -18 2 -29 12 -18 16
-19 16 -19 0z"/>
<path d="M790 3402 c0 -4 9 -13 20 -20 23 -14 26 -7 6 14 -16 15 -26 18 -26 6z"/>
<path d="M840 3401 c0 -9 30 -24 36 -18 2 1 -6 8 -16 15 -11 7 -20 8 -20 3z"/>
<path d="M1228 3403 c-22 -6 -31 -31 -18 -51 9 -14 10 -13 5 5 -5 17 0 25 22
37 27 15 24 18 -9 9z"/>
<path d="M1295 3400 c-3 -5 3 -10 15 -10 12 0 18 5 15 10 -3 6 -10 10 -15 10
-5 0 -12 -4 -15 -10z"/>
<path d="M1800 3400 c0 -5 5 -10 10 -10 6 0 10 5 10 10 0 6 -4 10 -10 10 -5 0
-10 -4 -10 -10z"/>
<path d="M2144 3395 c-18 -14 -18 -14 9 -15 15 0 27 4 27 9 0 18 -17 20 -36 6z"/>
<path d="M3932 3399 c2 -8 17 -15 31 -17 28 -3 36 -17 15 -25 -8 -3 -6 -6 5
-6 10 -1 17 6 17 18 0 10 -8 21 -17 24 -10 2 -26 8 -37 12 -14 6 -18 4 -14 -6z"/>
<path d="M935 3390 c4 -6 11 -8 16 -4 6 3 9 -1 7 -9 -2 -9 0 -16 5 -16 4 -1 7
1 7 4 0 3 0 12 0 20 0 8 -9 15 -21 15 -11 0 -17 -5 -14 -10z"/>
<path d="M1263 3386 c-6 -8 -9 -17 -6 -20 12 -11 19 -6 20 14 2 23 2 23 -14 6z"/>
<path d="M1382 3388 c-14 -14 -16 -28 -3 -28 9 0 24 30 18 36 -2 2 -9 -2 -15
-8z"/>
<path d="M1450 3393 c-24 -9 -50 -35 -50 -50 0 -12 2 -12 15 1 8 8 15 20 15
26 0 6 4 9 9 6 5 -3 14 1 21 9 13 16 13 16 -10 8z"/>
<path d="M1565 3390 c-8 -13 -1 -24 14 -19 6 3 7 10 2 18 -6 10 -10 10 -16 1z"/>
<path d="M1728 3389 c-9 -23 4 -40 22 -29 9 6 10 10 3 10 -6 0 -13 8 -15 18
-3 15 -4 15 -10 1z"/>
<path d="M2000 3389 c0 -5 5 -7 10 -4 6 3 10 8 10 11 0 2 -4 4 -10 4 -5 0 -10
-5 -10 -11z"/>
<path d="M183 3370 c1 -11 5 -20 9 -20 4 0 8 9 8 20 0 11 -4 20 -9 20 -6 0 -9
-9 -8 -20z"/>
<path d="M895 3380 c-3 -5 -1 -10 4 -10 6 0 11 5 11 10 0 6 -2 10 -4 10 -3 0
-8 -4 -11 -10z"/>
<path d="M1113 3375 c-3 -9 -3 -19 1 -22 3 -4 6 1 6 10 0 8 6 18 13 20 9 4 9
6 -1 6 -7 1 -15 -6 -19 -14z"/>
<path d="M1610 3370 c6 -11 16 -20 23 -19 9 0 9 2 0 6 -7 2 -13 11 -13 19 0 8
-5 14 -10 14 -7 0 -7 -6 0 -20z"/>
<path d="M1765 3380 c3 -5 8 -10 11 -10 2 0 4 5 4 10 0 6 -5 10 -11 10 -5 0
-7 -4 -4 -10z"/>
<path d="M1913 3353 c0 -19 4 -29 7 -22 5 6 16 8 29 4 12 -4 21 -2 21 4 0 6 6
11 14 11 8 0 18 4 21 10 4 6 -4 6 -21 0 -30 -12 -54 -7 -54 10 0 7 8 9 19 5
11 -3 22 -1 26 5 4 7 -5 10 -28 8 -31 -2 -34 -4 -34 -35z"/>
<path d="M313 3373 c4 -3 1 -13 -6 -21 -10 -13 -9 -14 2 -8 9 6 12 5 9 -5 -3
-8 -13 -13 -23 -12 -12 1 -14 -2 -6 -10 13 -13 44 11 37 30 -4 8 3 13 17 14
21 0 21 1 2 9 -25 11 -41 12 -32 3z"/>
<path d="M502 3365 c-11 -12 -10 -15 3 -15 8 0 15 7 15 15 0 18 -2 18 -18 0z"/>
<path d="M671 3364 c0 -11 3 -14 6 -6 3 7 2 16 -1 19 -3 4 -6 -2 -5 -13z"/>
<path d="M724 3350 c1 -17 4 -30 9 -30 10 0 9 48 -2 54 -4 3 -8 -8 -7 -24z"/>
<path d="M992 3355 c-24 -28 -27 -35 -13 -35 5 0 12 9 16 19 3 11 14 21 23 23
11 2 13 6 6 10 -6 4 -21 -4 -32 -17z"/>
<path d="M1490 3371 c0 -13 36 -20 51 -9 11 8 10 9 -3 4 -10 -3 -20 -1 -23 4
-8 12 -25 13 -25 1z"/>
<path d="M2032 3368 c-14 -14 -16 -28 -3 -28 9 0 24 30 18 36 -2 2 -9 -2 -15
-8z"/>
<path d="M2180 3365 c-11 -13 -10 -14 4 -9 9 3 16 10 16 15 0 13 -6 11 -20 -6z"/>
<path d="M3501 3364 c0 -11 3 -14 6 -6 3 7 2 16 -1 19 -3 4 -6 -2 -5 -13z"/>
<path d="M3550 3369 l-25 -8 25 1 c45 1 48 -1 43 -24 l-5 -23 16 22 c11 14 23
20 33 16 11 -4 14 -3 9 6 -4 6 -16 9 -27 6 -11 -4 -19 -2 -19 4 0 13 -14 13
-50 0z"/>
<path d="M3678 3370 c12 -5 22 -12 22 -15 0 -4 -10 -4 -22 -1 -13 3 -17 3 -10
0 6 -3 12 -15 12 -26 0 -17 -2 -18 -15 -8 -14 11 -14 10 -5 -14 13 -36 13 -38
-7 -32 -10 3 -25 1 -33 -5 -12 -8 -10 -9 8 -4 26 7 28 0 7 -21 -8 -9 -20 -12
-26 -8 -8 4 -9 3 -5 -4 10 -16 22 -15 41 4 23 24 32 8 9 -17 -19 -22 -19 -22
4 -8 15 9 21 21 18 33 -3 10 0 30 6 45 6 14 10 32 9 39 -1 7 8 16 21 22 17 6
19 9 6 9 -10 1 -18 6 -18 11 0 6 -10 10 -22 9 l-23 0 23 -9z"/>
<path d="M260 3355 c-16 -19 -1 -19 24 0 16 12 17 15 4 15 -8 0 -21 -7 -28
-15z"/>
<path d="M545 3359 c-4 -5 3 -9 14 -9 26 0 35 15 11 17 -11 1 -22 -2 -25 -8z"/>
<path d="M610 3357 c0 -19 18 -22 40 -6 13 9 13 10 -1 6 -9 -3 -22 0 -28 6 -8
8 -11 7 -11 -6z"/>
<path d="M697 3349 c4 -13 8 -18 11 -10 2 7 -1 18 -6 23 -8 8 -9 4 -5 -13z"/>
<path d="M777 3351 c3 -11 12 -22 21 -26 9 -3 13 -3 9 1 -4 4 -2 13 4 21 8 8
8 13 1 13 -6 0 -13 -6 -15 -12 -3 -8 -6 -6 -6 5 -1 9 -5 17 -10 17 -5 0 -7 -9
-4 -19z"/>
<path d="M1150 3360 c0 -5 10 -10 23 -10 18 0 19 2 7 10 -19 13 -30 13 -30 0z"/>
<path d="M1303 3360 c-13 -5 -23 -12 -23 -16 0 -3 7 -4 15 -1 8 4 17 2 20 -3
4 -6 12 -10 18 -9 9 0 9 2 0 5 -7 3 -9 12 -6 20 6 16 6 16 -24 4z"/>
<path d="M1887 3363 c-10 -9 -9 -23 1 -23 5 0 9 7 9 15 0 17 -1 18 -10 8z"/>
<path d="M2071 3360 c-1 -23 15 -45 23 -31 4 6 3 11 -3 11 -5 0 -12 8 -14 18
-3 12 -5 13 -6 2z"/>
<path d="M436 3351 c-4 -7 -5 -15 -2 -18 9 -9 19 4 14 18 -4 11 -6 11 -12 0z"/>
<path d="M925 3351 l20 -9 -20 -8 c-23 -9 -36 -25 -29 -36 9 -14 24 -9 18 6
-3 8 3 16 16 19 26 7 22 31 -6 34 -18 3 -18 2 1 -6z"/>
<path d="M1845 3350 c-3 -5 -2 -10 4 -10 5 0 13 5 16 10 3 6 2 10 -4 10 -5 0
-13 -4 -16 -10z"/>
<path d="M1535 3340 c-3 -5 1 -10 9 -10 9 0 16 5 16 10 0 6 -4 10 -9 10 -6 0
-13 -4 -16 -10z"/>
<path d="M1667 3343 c-4 -3 -7 -15 -7 -26 0 -14 -5 -18 -20 -14 -27 7 -25 3 6
-18 15 -9 24 -12 20 -7 -3 6 -1 23 4 38 11 27 9 40 -3 27z"/>
<path d="M1700 3341 c0 -9 30 -24 36 -18 2 1 -6 8 -16 15 -11 7 -20 8 -20 3z"/>
<path d="M2270 3345 c0 -9 40 -45 51 -45 5 0 7 -4 4 -10 -3 -5 -2 -10 3 -10 6
0 13 8 16 17 4 10 4 14 0 11 -3 -4 -18 4 -32 18 -25 23 -42 30 -42 19z"/>
<path d="M3728 3343 c-20 -5 -25 -23 -7 -23 6 0 25 -6 42 -14 18 -8 40 -16 50
-20 24 -8 32 -34 20 -67 -9 -23 -8 -27 5 -22 11 5 13 3 7 -7 -5 -7 -4 -11 1
-7 13 8 9 63 -6 92 -7 14 -21 25 -31 25 -10 0 -21 5 -24 10 -4 6 6 10 24 10
16 0 32 -6 34 -12 3 -7 6 -8 6 -3 0 6 -3 17 -9 25 -7 12 -14 12 -43 2 -44 -16
-56 -15 -33 3 20 15 20 15 0 14 -10 -1 -27 -3 -36 -6z"/>
<path d="M70 3325 c0 -8 -6 -15 -14 -15 -15 0 -28 -24 -19 -34 4 -3 13 -6 22
-6 14 0 14 2 1 10 -13 8 -12 10 3 10 9 0 17 4 17 9 0 5 3 16 6 25 3 9 1 16 -5
16 -6 0 -11 -7 -11 -15z"/>
<path d="M550 3330 c-13 -8 -13 -10 2 -10 9 0 20 5 23 10 8 13 -5 13 -25 0z"/>
<path d="M1235 3330 c3 -5 11 -10 16 -10 6 0 7 5 4 10 -3 6 -11 10 -16 10 -6
0 -7 -4 -4 -10z"/>
<path d="M1437 3333 c-12 -12 -7 -22 8 -17 8 4 15 10 15 15 0 11 -14 12 -23 2z"/>
<path d="M2158 3320 c23 -22 42 -26 42 -10 0 6 -7 10 -15 10 -8 0 -15 5 -15
10 0 6 -8 10 -17 10 -14 0 -14 -3 5 -20z"/>
<path d="M3530 3330 c0 -5 7 -10 15 -10 8 0 15 -6 15 -14 0 -15 35 -27 56 -19
16 6 19 43 4 43 -5 0 -10 -7 -10 -15 0 -22 -31 -18 -37 5 -5 20 -43 29 -43 10z"/>
<path d="M7 3323 c7 -2 19 -2 26 0 6 3 1 5 -13 5 -14 0 -19 -2 -13 -5z"/>
<path d="M114 3322 c3 -5 -4 -16 -15 -25 -18 -16 -26 -37 -13 -37 3 0 14 10
24 23 10 12 22 19 26 15 4 -4 1 -14 -6 -23 -17 -20 6 -21 26 -1 17 17 8 47
-12 39 -8 -3 -14 0 -14 6 0 6 -5 11 -11 11 -5 0 -8 -4 -5 -8z"/>
<path d="M180 3322 c0 -4 9 -13 20 -20 12 -7 18 -17 14 -23 -4 -7 1 -7 15 0
11 7 21 14 21 17 0 3 -4 2 -10 -1 -5 -3 -10 -1 -10 4 0 6 -7 11 -15 11 -8 0
-15 5 -15 10 0 6 -4 10 -10 10 -5 0 -10 -3 -10 -8z"/>
<path d="M630 3321 c0 -10 19 -25 25 -20 1 2 -3 10 -11 17 -8 7 -14 8 -14 3z"/>
<path d="M1001 3314 c0 -11 3 -14 6 -6 3 7 2 16 -1 19 -3 4 -6 -2 -5 -13z"/>
<path d="M1125 3320 c-4 -6 5 -7 23 -4 25 5 30 2 36 -18 5 -19 8 -20 16 -8 7
11 5 19 -7 28 -20 14 -59 16 -68 2z"/>
<path d="M1570 3320 c0 -5 5 -10 10 -10 6 0 10 5 10 10 0 6 -4 10 -10 10 -5 0
-10 -4 -10 -10z"/>
<path d="M1850 3319 c-13 -9 -13 -10 1 -6 9 3 22 0 29 -6 10 -9 12 -9 8 2 -6
20 -20 23 -38 10z"/>
<path d="M1930 3319 c0 -5 5 -7 10 -4 6 3 10 8 10 11 0 2 -4 4 -10 4 -5 0 -10
-5 -10 -11z"/>
<path d="M3480 3317 c0 -8 10 -22 21 -33 l22 -19 -14 25 c-7 14 -12 28 -11 33
1 4 -2 7 -8 7 -5 0 -10 -6 -10 -13z"/>
<path d="M3935 3320 c3 -5 10 -10 16 -10 5 0 9 5 9 10 0 6 -7 10 -16 10 -8 0
-12 -4 -9 -10z"/>
<path d="M420 3308 c0 -9 5 -20 10 -23 13 -8 13 5 0 25 -8 13 -10 13 -10 -2z"/>
<path d="M700 3310 c0 -5 5 -10 11 -10 5 0 7 5 4 10 -3 6 -8 10 -11 10 -2 0
-4 -4 -4 -10z"/>
<path d="M1275 3299 c-6 -17 -9 -19 -16 -8 -7 11 -9 10 -9 -3 0 -10 4 -18 10
-18 11 0 34 39 27 47 -3 2 -8 -5 -12 -18z"/>
<path d="M1396 3311 c-4 -7 -5 -15 -2 -18 9 -9 19 4 14 18 -4 11 -6 11 -12 0z"/>
<path d="M1680 3316 c0 -2 7 -9 15 -16 9 -7 15 -8 15 -2 0 5 -7 12 -15 16 -8
3 -15 4 -15 2z"/>
<path d="M2216 3312 c-4 -7 -3 -12 3 -12 5 0 11 -8 13 -17 2 -12 6 -14 10 -7
4 6 1 19 -6 29 -9 13 -15 15 -20 7z"/>
<path d="M2250 3305 c0 -9 9 -15 21 -15 18 0 19 2 9 15 -7 8 -16 15 -21 15 -5
0 -9 -7 -9 -15z"/>
<path d="M510 3299 c0 -5 5 -7 10 -4 6 3 10 8 10 11 0 2 -4 4 -10 4 -5 0 -10
-5 -10 -11z"/>
<path d="M585 3301 c-6 -11 33 -26 42 -17 4 3 1 6 -6 6 -7 0 -9 5 -6 10 3 6
-1 10 -9 10 -8 0 -17 -4 -21 -9z"/>
<path d="M741 3294 c0 -11 3 -14 6 -6 3 7 2 16 -1 19 -3 4 -6 -2 -5 -13z"/>
<path d="M813 3295 c-15 -16 -16 -25 -5 -25 4 0 13 9 20 20 14 23 3 26 -15 5z"/>
<path d="M956 3297 c3 -10 9 -15 12 -12 3 3 0 11 -7 18 -10 9 -11 8 -5 -6z"/>
<path d="M1483 3294 c0 -8 4 -14 9 -14 4 0 8 -7 8 -15 0 -8 5 -15 10 -15 7 0
7 7 -1 22 -10 18 -9 20 5 15 10 -4 15 -3 12 2 -10 15 -43 19 -43 5z"/>
<path d="M1540 3302 c0 -11 58 -37 66 -29 11 10 -6 26 -21 20 -9 -3 -22 0 -30
7 -9 7 -15 8 -15 2z"/>
<path d="M1777 3303 c-40 -6 -25 -20 17 -15 20 2 33 8 30 13 -3 5 -8 8 -12 8
-4 -1 -19 -4 -35 -6z"/>
<path d="M2048 3303 c7 -3 16 -2 19 1 4 3 -2 6 -13 5 -11 0 -14 -3 -6 -6z"/>
<path d="M2113 3295 c-8 -9 -9 -16 -3 -20 6 -3 10 -1 10 4 0 6 9 11 21 11 11
0 17 5 14 10 -9 14 -28 12 -42 -5z"/>
<path d="M3526 3301 c-4 -5 -2 -12 3 -15 5 -4 12 -2 15 3 4 5 2 12 -3 15 -5 4
-12 2 -15 -3z"/>
<path d="M3948 3302 c-12 -5 -15 -11 -8 -22 8 -13 11 -13 22 1 7 9 20 19 28
22 10 4 9 5 -5 6 -11 0 -28 -3 -37 -7z"/>
<path d="M272 3296 c2 -1 10 -7 19 -14 13 -10 18 -10 22 0 3 8 -5 14 -20 14
-13 1 -23 1 -21 0z"/>
<path d="M545 3290 c3 -5 10 -10 16 -10 5 0 9 5 9 10 0 6 -7 10 -16 10 -8 0
-12 -4 -9 -10z"/>
<path d="M1301 3291 c-12 -8 -7 -14 22 -31 20 -12 37 -24 37 -26 0 -2 -15 -8
-32 -13 -25 -7 -27 -9 -11 -10 12 -1 27 -9 33 -18 9 -16 10 -15 5 4 -6 23 -6
23 24 5 26 -14 32 -15 43 -3 11 12 10 13 -2 9 -18 -6 -57 18 -47 28 4 4 13 1
22 -6 12 -10 15 -10 15 3 0 10 -11 17 -27 19 -14 2 -28 9 -31 16 -2 7 2 10 12
6 10 -4 16 -1 16 8 0 7 -9 14 -20 14 -11 0 -20 -6 -20 -13 0 -7 -5 -13 -11
-13 -6 0 -9 7 -5 15 6 17 -2 19 -23 6z"/>
<path d="M1842 3284 c-18 -13 -21 -19 -11 -30 6 -8 16 -14 21 -14 6 0 5 7 -2
15 -11 13 -10 18 6 30 26 20 14 19 -14 -1z"/>
<path d="M1924 3280 c0 -13 7 -20 18 -20 21 0 23 11 6 28 -17 17 -24 15 -24
-8z"/>
<path d="M180 3264 c0 -14 4 -23 10 -19 6 3 10 15 10 26 0 10 -4 19 -10 19 -5
0 -10 -12 -10 -26z"/>
<path d="M400 3280 c0 -5 5 -10 11 -10 5 0 7 5 4 10 -3 6 -8 10 -11 10 -2 0
-4 -4 -4 -10z"/>
<path d="M466 3281 c-3 -5 1 -11 9 -15 8 -3 15 -1 15 4 0 13 -18 22 -24 11z"/>
<path d="M673 3262 c0 -18 3 -29 6 -25 10 14 34 14 42 1 6 -9 9 -6 9 10 0 20
-2 21 -22 11 -18 -10 -20 -9 -15 5 4 10 3 15 -2 11 -5 -3 -11 1 -13 7 -3 7 -5
-2 -5 -20z"/>
<path d="M844 3279 c-3 -6 -1 -22 7 -35 13 -24 29 -32 29 -14 0 6 -4 10 -9 10
-14 0 -20 38 -7 44 8 3 8 5 -1 5 -6 1 -15 -4 -19 -10z"/>
<path d="M1140 3286 c0 -1 9 -9 20 -19 15 -13 20 -14 20 -3 0 7 -9 16 -20 19
-11 3 -20 4 -20 3z"/>
<path d="M1417 3283 c-12 -11 -8 -23 8 -23 13 0 19 -19 18 -58 -1 -7 4 -11 11
-9 12 5 12 10 1 46 -6 20 -4 23 9 18 9 -4 16 -2 16 3 0 10 -14 14 -39 11 -7
-2 -10 2 -6 8 7 12 -8 15 -18 4z"/>
<path d="M1885 3280 c-3 -5 1 -10 10 -10 9 0 13 5 10 10 -3 6 -8 10 -10 10 -2
0 -7 -4 -10 -10z"/>
<path d="M2004 3274 c22 -8 45 -12 50 -10 6 2 3 5 -6 5 -10 1 -18 4 -18 9 0 4
-15 8 -33 9 l-32 1 39 -14z"/>
<path d="M265 3243 c1 -19 8 -39 16 -45 11 -7 11 -11 2 -15 -7 -2 -13 -10 -13
-16 0 -8 4 -7 12 1 17 17 26 15 31 -5 4 -17 5 -17 6 0 2 26 -17 57 -35 57 -10
0 -13 7 -8 24 3 13 2 26 -3 29 -5 3 -8 -10 -8 -30z"/>
<path d="M584 3272 c4 -7 2 -20 -6 -30 -12 -16 -11 -16 7 -2 11 8 21 15 23 16
1 1 -5 7 -15 15 -12 10 -15 10 -9 1z"/>
<path d="M1710 3270 c0 -5 -8 -10 -17 -10 -23 0 -5 -16 27 -25 18 -4 21 -3 11
3 -8 6 -11 17 -8 26 4 9 2 16 -3 16 -6 0 -10 -4 -10 -10z"/>
<path d="M2130 3270 c0 -13 12 -19 26 -13 21 8 17 19 -6 19 -11 0 -20 -3 -20
-6z"/>
<path d="M2272 3260 c0 -14 2 -19 5 -12 2 6 2 18 0 25 -3 6 -5 1 -5 -13z"/>
<path d="M3390 3266 c0 -8 5 -18 10 -21 6 -3 10 1 10 9 0 8 -4 18 -10 21 -5 3
-10 -1 -10 -9z"/>
<path d="M3773 3272 c-32 -5 -28 -22 5 -22 18 0 23 -3 14 -8 -7 -5 -10 -16 -6
-25 7 -19 28 -23 21 -4 -2 6 2 17 10 22 19 14 -14 41 -44 37z"/>
<path d="M635 3260 c-3 -5 -1 -10 4 -10 6 0 11 5 11 10 0 6 -2 10 -4 10 -3 0
-8 -4 -11 -10z"/>
<path d="M925 3259 c-9 -14 -2 -20 14 -10 8 6 9 11 3 15 -6 3 -14 1 -17 -5z"/>
<path d="M1975 3260 c3 -5 11 -10 16 -10 6 0 7 5 4 10 -3 6 -11 10 -16 10 -6
0 -7 -4 -4 -10z"/>
<path d="M3556 3261 c-3 -5 0 -11 6 -14 10 -3 9 -9 -4 -23 -16 -18 -15 -19 9
-21 19 -1 22 1 12 8 -10 7 -11 11 -2 17 8 5 8 12 -2 25 -7 10 -16 14 -19 8z"/>
<path d="M3727 3263 c-4 -3 -7 -13 -7 -22 1 -13 3 -13 11 2 11 19 8 33 -4 20z"/>
<path d="M3963 3263 c-13 -2 -23 -9 -23 -15 0 -5 7 -7 16 -4 9 3 22 6 30 6 8
0 14 5 14 10 0 6 -3 9 -7 9 -5 -1 -18 -4 -30 -6z"/>
<path d="M8 3253 c7 -3 16 -2 19 1 4 3 -2 6 -13 5 -11 0 -14 -3 -6 -6z"/>
<path d="M810 3244 c0 -8 5 -12 10 -9 6 4 8 11 5 16 -9 14 -15 11 -15 -7z"/>
<path d="M1632 3235 c0 -16 2 -22 5 -12 2 9 2 23 0 30 -3 6 -5 -1 -5 -18z"/>
<path d="M2300 3250 c0 -6 7 -10 15 -10 8 0 15 2 15 4 0 2 -7 6 -15 10 -8 3
-15 1 -15 -4z"/>
<path d="M3507 3245 c-10 -7 -15 -15 -10 -18 5 -3 16 1 26 8 10 7 15 15 10 18
-5 3 -16 -1 -26 -8z"/>
<path d="M70 3242 c0 -7 -8 -12 -19 -12 -10 0 -21 -8 -24 -19 -3 -14 0 -17 12
-14 19 5 46 42 37 51 -3 3 -6 0 -6 -6z"/>
<path d="M350 3240 c0 -10 41 -21 52 -14 16 10 7 19 -22 20 -17 1 -30 -2 -30
-6z"/>
<path d="M1227 3230 c-3 -11 -1 -20 4 -20 5 0 9 6 9 14 0 8 8 17 18 19 13 4
13 5 -4 6 -14 1 -24 -6 -27 -19z"/>
<path d="M1664 3233 c2 -9 8 -19 15 -21 10 -3 10 0 2 17 -14 25 -20 27 -17 4z"/>
<path d="M1780 3240 c0 -5 5 -10 10 -10 6 0 10 5 10 10 0 6 -4 10 -10 10 -5 0
-10 -4 -10 -10z"/>
<path d="M2015 3240 c-3 -5 -18 -10 -32 -10 -15 0 -24 -3 -20 -6 9 -9 87 6 87
17 0 12 -27 12 -35 -1z"/>
<path d="M2111 3234 c0 -11 3 -14 6 -6 3 7 2 16 -1 19 -3 4 -6 -2 -5 -13z"/>
<path d="M2194 3225 c6 -25 -9 -36 -17 -12 -2 6 -3 4 -2 -5 2 -10 -5 -18 -19
-21 -14 -3 -11 -5 10 -6 21 -1 34 5 38 15 10 25 7 54 -5 54 -7 0 -9 -10 -5
-25z"/>
<path d="M2226 3235 c-3 -9 -6 -26 -5 -38 1 -14 4 -9 9 13 9 37 7 52 -4 25z"/>
<path d="M2248 3238 c-9 -21 14 -53 33 -45 11 4 10 6 -3 6 -11 1 -18 11 -20
29 -2 20 -5 23 -10 10z"/>
<path d="M81 3213 l-13 -28 21 22 c23 24 26 33 13 33 -5 0 -14 -12 -21 -27z"/>
<path d="M162 3215 c0 -16 2 -22 5 -12 2 9 2 23 0 30 -3 6 -5 -1 -5 -18z"/>
<path d="M1570 3223 c0 -10 5 -25 10 -33 7 -11 10 -7 10 18 0 17 -4 32 -10 32
-5 0 -10 -8 -10 -17z"/>
<path d="M1600 3224 c0 -10 5 -26 10 -34 8 -11 9 -7 4 15 -8 37 -14 45 -14 19z"/>
<path d="M2340 3232 c0 -15 25 -26 40 -17 6 3 7 11 4 17 -4 6 -10 5 -15 -3 -8
-12 -11 -11 -19 1 -7 11 -10 11 -10 2z"/>
<path d="M3450 3223 c0 -15 -2 -16 -10 -3 -8 12 -10 11 -10 -7 0 -12 5 -25 10
-28 6 -3 10 -1 10 4 0 21 20 11 26 -14 10 -41 29 -49 48 -20 19 28 10 34 -10
8 -13 -17 -13 -17 -14 0 0 9 -4 17 -10 17 -17 0 -11 18 8 23 13 4 11 5 -5 6
-13 1 -23 7 -23 16 0 8 -4 15 -10 15 -5 0 -10 -8 -10 -17z"/>
<path d="M3911 3228 c-1 -9 4 -20 9 -23 6 -4 8 -9 6 -13 -2 -4 10 -8 26 -8
l31 -1 -24 14 c-23 13 -23 14 -1 8 12 -4 22 -2 22 3 0 14 -50 22 -51 8 0 -6
-4 -2 -9 9 -7 16 -9 17 -9 3z"/>
<path d="M550 3221 c0 -7 -4 -10 -9 -6 -5 3 -12 1 -16 -5 -3 -5 1 -10 9 -10
17 0 31 18 22 27 -3 4 -6 1 -6 -6z"/>
<path d="M590 3220 c0 -5 5 -10 10 -10 6 0 10 5 10 10 0 6 -4 10 -10 10 -5 0
-10 -4 -10 -10z"/>
<path d="M3727 3218 c-18 -6 -26 -15 -23 -24 3 -7 1 -16 -4 -19 -6 -4 -10 -11
-10 -17 0 -7 6 -6 15 2 10 9 15 9 15 1 0 -6 5 -11 12 -11 9 0 9 3 0 12 -32 32
8 60 42 30 32 -29 47 -35 40 -18 -3 9 -12 16 -19 16 -7 0 -19 9 -26 19 -12 16
-19 17 -42 9z"/>
<path d="M420 3209 c0 -5 5 -7 10 -4 6 3 10 8 10 11 0 2 -4 4 -10 4 -5 0 -10
-5 -10 -11z"/>
<path d="M450 3204 c0 -8 5 -12 10 -9 6 3 10 10 10 16 0 5 -4 9 -10 9 -5 0
-10 -7 -10 -16z"/>
<path d="M820 3204 c0 -8 5 -12 10 -9 6 4 8 11 5 16 -9 14 -15 11 -15 -7z"/>
<path d="M980 3208 c0 -8 11 -14 28 -15 15 -1 20 1 12 4 -8 3 -21 10 -27 16
-9 6 -13 5 -13 -5z"/>
<path d="M1905 3210 c-4 -6 -16 -8 -28 -5 -12 4 -17 3 -11 -2 6 -4 13 -12 15
-18 2 -5 15 0 28 13 13 12 19 22 13 22 -6 0 -14 -5 -17 -10z"/>
<path d="M1 3194 c0 -11 3 -14 6 -6 3 7 2 16 -1 19 -3 4 -6 -2 -5 -13z"/>
<path d="M105 3200 c-3 -6 1 -7 9 -4 18 7 21 14 7 14 -6 0 -13 -4 -16 -10z"/>
<path d="M358 3203 c7 -3 16 -2 19 1 4 3 -2 6 -13 5 -11 0 -14 -3 -6 -6z"/>
<path d="M665 3199 c-4 -6 -5 -12 -2 -15 2 -3 7 2 10 11 7 17 1 20 -8 4z"/>
<path d="M690 3187 c0 -18 2 -19 10 -7 9 13 11 13 20 0 8 -13 10 -13 10 1 0 9
-9 19 -20 22 -15 4 -20 0 -20 -16z"/>
<path d="M1130 3205 c0 -3 8 -14 17 -25 19 -21 38 -26 47 -11 4 5 -4 7 -16 3
-14 -3 -19 -2 -14 6 4 7 2 12 -4 12 -6 0 -8 5 -5 10 3 6 -1 10 -9 10 -9 0 -16
-2 -16 -5z"/>
<path d="M1703 3202 c-8 -5 -10 -17 -6 -32 l7 -25 6 25 c4 14 12 24 19 22 7
-1 10 2 6 8 -7 12 -16 12 -32 2z"/>
<path d="M622 3186 c7 -8 15 -12 17 -11 5 6 -10 25 -20 25 -5 0 -4 -6 3 -14z"/>
<path d="M860 3191 c0 -6 4 -13 10 -16 6 -3 7 1 4 9 -7 18 -14 21 -14 7z"/>
<path d="M905 3190 c-3 -6 1 -7 9 -4 18 7 21 14 7 14 -6 0 -13 -4 -16 -10z"/>
<path d="M1652 3188 c2 -5 8 -9 13 -9 5 0 11 4 13 9 1 5 -4 9 -13 9 -9 0 -14
-4 -13 -9z"/>
<path d="M1750 3185 c-7 -9 -10 -18 -6 -22 3 -3 6 -1 6 6 0 7 4 10 9 7 5 -4
12 0 14 6 4 10 8 9 16 -2 5 -8 13 -11 18 -7 8 9 -14 27 -33 27 -6 0 -17 -7
-24 -15z"/>
<path d="M1825 3190 c4 -6 11 -8 16 -5 14 9 11 15 -7 15 -8 0 -12 -5 -9 -10z"/>
<path d="M3395 3190 c3 -5 11 -10 16 -10 6 0 7 5 4 10 -3 6 -11 10 -16 10 -6
0 -7 -4 -4 -10z"/>
<path d="M220 3180 c0 -5 5 -10 11 -10 5 0 7 5 4 10 -3 6 -8 10 -11 10 -2 0
-4 -4 -4 -10z"/>
<path d="M352 3175 c-11 -12 -10 -15 3 -15 8 0 15 7 15 15 0 18 -2 18 -18 0z"/>
<path d="M1275 3181 c-3 -5 -1 -12 5 -16 5 -3 10 1 10 9 0 18 -6 21 -15 7z"/>
<path d="M1470 3180 c0 -5 7 -10 15 -10 8 0 15 5 15 10 0 6 -7 10 -15 10 -8 0
-15 -4 -15 -10z"/>
<path d="M1540 3182 c0 -12 19 -26 26 -19 2 2 -2 10 -11 17 -9 8 -15 8 -15 2z"/>
<path d="M1906 3181 c-4 -7 -5 -15 -2 -18 9 -9 19 4 14 18 -4 11 -6 11 -12 0z"/>
<path d="M2360 3175 c0 -8 5 -15 10 -15 6 0 10 7 10 15 0 8 -4 15 -10 15 -5 0
-10 -7 -10 -15z"/>
<path d="M3367 3169 c3 -10 0 -19 -6 -19 -6 0 -11 -5 -11 -11 0 -5 4 -8 9 -5
5 4 11 0 14 -6 2 -7 8 -9 13 -5 5 4 2 12 -5 16 -9 6 -10 11 -2 15 15 10 14 23
-3 29 -10 4 -12 0 -9 -14z"/>
<path d="M3652 3176 c7 -8 15 -12 17 -11 5 6 -10 25 -20 25 -5 0 -4 -6 3 -14z"/>
<path d="M136 3167 c3 -10 9 -15 12 -12 3 3 0 11 -7 18 -10 9 -11 8 -5 -6z"/>
<path d="M426 3164 c-9 -24 -7 -27 9 -10 17 17 19 26 6 26 -5 0 -12 -7 -15
-16z"/>
<path d="M1855 3170 c-3 -5 -1 -10 4 -10 6 0 11 5 11 10 0 6 -2 10 -4 10 -3 0
-8 -4 -11 -10z"/>
<path d="M1954 3165 c-7 -17 12 -45 30 -45 6 0 5 4 -3 9 -8 5 -11 16 -6 30 7
24 -12 30 -21 6z"/>
<path d="M2289 3173 c-15 -2 -35 -14 -45 -26 -19 -22 -19 -22 2 -4 11 9 33 17
47 17 15 0 27 5 27 10 0 6 -1 9 -2 9 -2 -1 -15 -4 -29 -6z"/>
<path d="M2401 3166 c-10 -11 -10 -19 -1 -33 11 -17 11 -17 5 1 -3 11 0 23 7
27 7 4 10 11 7 14 -4 3 -12 -1 -18 -9z"/>
<path d="M3026 3170 c-11 -3 -15 -9 -10 -13 10 -6 42 9 34 16 -3 3 -14 1 -24
-3z"/>
<path d="M3578 3173 c7 -3 16 -2 19 1 4 3 -2 6 -13 5 -11 0 -14 -3 -6 -6z"/>
<path d="M3757 3173 c-4 -3 -7 -11 -7 -17 0 -6 5 -5 12 2 6 6 9 14 7 17 -3 3
-9 2 -12 -2z"/>
<path d="M3870 3176 c0 -2 7 -7 16 -10 8 -3 12 -2 9 4 -6 10 -25 14 -25 6z"/>
<path d="M521 3154 c-7 -8 -11 -17 -9 -20 3 -2 13 5 23 16 10 11 14 20 9 20
-5 -1 -15 -8 -23 -16z"/>
<path d="M750 3150 c6 -11 12 -20 14 -20 2 0 2 9 -1 20 -3 11 -9 20 -15 20 -5
0 -4 -9 2 -20z"/>
<path d="M1439 3165 c-11 -10 6 -58 22 -63 11 -4 12 -2 2 9 -6 8 -13 25 -15
37 -1 13 -6 21 -9 17z"/>
<path d="M1505 3143 l-17 -28 23 22 c12 12 20 25 17 28 -3 3 -13 -7 -23 -22z"/>
<path d="M1824 3151 c1 -17 26 -28 26 -11 0 6 -4 9 -9 5 -5 -3 -11 0 -14 7 -2
9 -4 8 -3 -1z"/>
<path d="M2011 3154 c0 -11 3 -14 6 -6 3 7 2 16 -1 19 -3 4 -6 -2 -5 -13z"/>
<path d="M2036 3161 c-4 -7 -5 -15 -2 -18 9 -9 19 4 14 18 -4 11 -6 11 -12 0z"/>
<path d="M2180 3159 c-23 -6 -23 -7 -3 -8 12 -1 23 -7 26 -13 2 -7 7 -11 9 -8
3 3 3 12 -1 21 -4 11 -13 13 -31 8z"/>
<path d="M3841 3154 c0 -11 3 -14 6 -6 3 7 2 16 -1 19 -3 4 -6 -2 -5 -13z"/>
<path d="M3976 3161 c-19 -7 -19 -8 2 -13 15 -4 22 -2 22 8 0 8 -1 14 -2 13
-2 0 -12 -4 -22 -8z"/>
<path d="M5 3151 c-3 -5 -1 -12 5 -16 5 -3 10 1 10 9 0 18 -6 21 -15 7z"/>
<path d="M615 3150 c3 -5 8 -10 11 -10 2 0 4 5 4 10 0 6 -5 10 -11 10 -5 0 -7
-4 -4 -10z"/>
<path d="M838 3153 c7 -3 16 -2 19 1 4 3 -2 6 -13 5 -11 0 -14 -3 -6 -6z"/>
<path d="M2430 3144 c0 -8 5 -12 10 -9 6 3 10 10 10 16 0 5 -4 9 -10 9 -5 0
-10 -7 -10 -16z"/>
<path d="M3072 3148 c2 -6 10 -13 16 -14 7 -1 8 0 2 3 -5 2 -8 9 -4 14 3 5 0
9 -6 9 -7 0 -10 -5 -8 -12z"/>
<path d="M3400 3150 c0 -5 5 -10 10 -10 6 0 10 5 10 10 0 6 -4 10 -10 10 -5 0
-10 -4 -10 -10z"/>
<path d="M3770 3145 c-8 -9 -8 -15 -2 -15 12 0 26 19 19 26 -2 2 -10 -2 -17
-11z"/>
<path d="M538 3132 c-12 -12 -14 -22 -8 -32 8 -12 10 -12 10 4 0 16 2 17 18 5
14 -11 15 -11 5 0 -6 7 -9 20 -6 27 7 18 2 17 -19 -4z"/>
<path d="M670 3140 c0 -5 5 -10 10 -10 6 0 10 5 10 10 0 6 -4 10 -10 10 -5 0
-10 -4 -10 -10z"/>
<path d="M1185 3139 c-10 -15 3 -25 16 -12 7 7 7 13 1 17 -6 3 -14 1 -17 -5z"/>
<path d="M1790 3134 c0 -8 5 -12 10 -9 6 4 8 11 5 16 -9 14 -15 11 -15 -7z"/>
<path d="M1881 3134 c0 -11 3 -14 6 -6 3 7 2 16 -1 19 -3 4 -6 -2 -5 -13z"/>
<path d="M2308 3138 c-16 -5 -28 -16 -28 -23 0 -8 -7 -20 -15 -28 -13 -13 -13
-16 1 -21 9 -3 14 -12 11 -20 -4 -10 0 -12 13 -9 17 5 17 7 5 20 -8 8 -15 19
-15 24 0 23 22 49 40 49 11 0 20 5 20 10 0 6 -1 10 -2 9 -2 0 -15 -5 -30 -11z"/>
<path d="M3440 3140 c0 -5 6 -10 13 -10 6 0 4 -5 -6 -11 -9 -5 -22 -7 -27 -4
-6 3 -10 1 -10 -5 0 -8 9 -10 27 -5 35 8 35 9 27 29 -7 17 -24 22 -24 6z"/>
<path d="M3580 3140 c20 -13 40 -13 40 0 0 6 -12 10 -27 10 -22 0 -25 -2 -13
-10z"/>
<path d="M3821 3134 c0 -11 3 -14 6 -6 3 7 2 16 -1 19 -3 4 -6 -2 -5 -13z"/>
<path d="M286 3125 c-3 -8 0 -17 6 -21 6 -4 8 -3 4 4 -3 5 -1 12 6 14 8 3 9 6
1 11 -6 4 -13 0 -17 -8z"/>
<path d="M350 3136 c0 -2 13 -6 29 -8 17 -2 28 -1 25 4 -5 8 -54 12 -54 4z"/>
<path d="M869 3123 c-12 -15 -11 -16 9 -11 25 7 28 -1 10 -22 -7 -8 -3 -6 10
4 27 23 27 23 3 35 -14 8 -22 7 -32 -6z"/>
<path d="M1226 3124 c-9 -24 -7 -28 9 -14 17 14 20 30 6 30 -5 0 -12 -7 -15
-16z"/>
<path d="M1283 3118 c-1 -11 1 -16 5 -12 4 5 11 12 15 15 5 3 2 9 -5 12 -9 3
-14 -3 -15 -15z"/>
<path d="M1597 3129 c7 -7 15 -10 18 -7 3 3 -2 9 -12 12 -14 6 -15 5 -6 -5z"/>
<path d="M3140 3121 c0 -25 6 -27 13 -6 4 8 2 17 -3 20 -6 4 -10 -3 -10 -14z"/>
<path d="M3880 3125 c7 -8 17 -12 22 -9 6 4 5 10 -3 15 -22 14 -33 10 -19 -6z"/>
<path d="M3943 3120 c-2 -22 -1 -23 21 -14 13 5 14 9 5 20 -16 19 -24 17 -26
-6z"/>
<path d="M578 3123 c7 -3 16 -2 19 1 4 3 -2 6 -13 5 -11 0 -14 -3 -6 -6z"/>
<path d="M827 3124 c-4 -4 -7 -14 -7 -23 0 -11 3 -12 11 -4 6 6 10 16 7 23 -2
6 -7 8 -11 4z"/>
<path d="M1550 3120 c-13 -8 -13 -10 2 -10 9 0 20 5 23 10 8 13 -5 13 -25 0z"/>
<path d="M2010 3115 c-11 -13 -10 -14 4 -9 9 3 16 10 16 15 0 13 -6 11 -20 -6z"/>
<path d="M2045 3120 c3 -5 8 -10 11 -10 2 0 4 5 4 10 0 6 -5 10 -11 10 -5 0
-7 -4 -4 -10z"/>
<path d="M2140 3115 c0 -8 4 -15 8 -15 5 0 9 7 9 15 0 8 -4 15 -9 15 -4 0 -8
-7 -8 -15z"/>
<path d="M3535 3120 c-3 -6 1 -7 9 -4 18 7 21 14 7 14 -6 0 -13 -4 -16 -10z"/>
<path d="M3800 3119 c0 -5 -4 -8 -8 -5 -4 2 -8 -6 -7 -20 0 -35 19 -30 21 6 1
16 0 30 -2 30 -2 0 -4 -5 -4 -11z"/>
<path d="M65 3110 c-3 -5 -2 -17 3 -26 8 -15 10 -15 15 0 5 12 3 15 -5 10 -8
-5 -9 -2 -5 9 7 19 2 23 -8 7z"/>
<path d="M130 3109 c0 -5 -4 -7 -10 -4 -5 3 -10 1 -10 -4 0 -6 7 -11 15 -11 8
0 15 7 15 15 0 8 -2 15 -5 15 -3 0 -5 -5 -5 -11z"/>
<path d="M1715 3110 c3 -5 -2 -10 -11 -10 -10 0 -15 -3 -11 -6 8 -8 47 5 47
17 0 5 -7 9 -16 9 -8 0 -12 -4 -9 -10z"/>
<path d="M1860 3102 c0 -13 -4 -20 -10 -17 -6 3 -10 -4 -9 -17 0 -13 3 -18 5
-12 3 6 17 10 32 8 15 -2 19 -1 9 2 -10 3 -16 11 -14 18 3 7 1 19 -4 27 -7 11
-9 8 -9 -9z"/>
<path d="M2228 3113 c7 -3 16 -2 19 1 4 3 -2 6 -13 5 -11 0 -14 -3 -6 -6z"/>
<path d="M2322 3111 c-8 -4 -5 -11 8 -19 16 -10 20 -10 20 2 0 19 -13 27 -28
17z"/>
<path d="M2480 3110 c0 -5 7 -7 15 -4 8 4 15 8 15 10 0 2 -7 4 -15 4 -8 0 -15
-4 -15 -10z"/>
<path d="M3336 3105 c4 -8 10 -12 15 -9 11 6 2 24 -11 24 -5 0 -7 -7 -4 -15z"/>
<path d="M3679 3103 c-13 -17 -13 -17 6 -3 11 8 22 16 24 17 2 2 0 3 -6 3 -6
0 -17 -8 -24 -17z"/>
<path d="M3916 3104 c-4 -9 -4 -19 -1 -22 2 -3 7 3 11 12 4 9 4 19 1 22 -2 3
-7 -3 -11 -12z"/>
<path d="M10 3105 c0 -8 27 -35 34 -35 14 0 4 20 -14 30 -11 6 -20 8 -20 5z"/>
<path d="M1195 3100 c3 -5 8 -10 11 -10 2 0 4 5 4 10 0 6 -5 10 -11 10 -5 0
-7 -4 -4 -10z"/>
<path d="M2528 3090 c-7 -24 -3 -38 8 -28 3 4 4 17 2 30 l-3 23 -7 -25z"/>
<path d="M3721 3101 c-12 -8 -12 -12 -2 -25 15 -18 31 -21 31 -6 0 6 -7 10
-16 10 -14 0 -14 3 -4 15 14 17 11 19 -9 6z"/>
<path d="M3835 3100 c-3 -5 -1 -10 4 -10 6 0 11 5 11 10 0 6 -2 10 -4 10 -3 0
-8 -4 -11 -10z"/>
<path d="M155 3090 c3 -5 8 -10 11 -10 2 0 4 5 4 10 0 6 -5 10 -11 10 -5 0 -7
-4 -4 -10z"/>
<path d="M256 3092 c-2 -4 4 -13 15 -20 22 -14 25 -7 5 14 -8 8 -17 11 -20 6z"/>
<path d="M1355 3090 c3 -5 8 -10 11 -10 2 0 4 5 4 10 0 6 -5 10 -11 10 -5 0
-7 -4 -4 -10z"/>
<path d="M1390 3090 c0 -5 7 -10 15 -10 8 0 15 5 15 10 0 6 -7 10 -15 10 -8 0
-15 -4 -15 -10z"/>
<path d="M1539 3091 c7 -5 11 -14 7 -20 -5 -7 -1 -9 8 -5 20 8 20 20 0 28 -23
9 -31 7 -15 -3z"/>
<path d="M2070 3091 c0 -9 -8 -11 -26 -7 -21 6 -23 4 -13 -7 7 -7 19 -14 26
-14 13 0 27 26 18 35 -3 3 -5 0 -5 -7z"/>
<path d="M2580 3090 c0 -5 7 -10 16 -10 8 0 12 5 9 10 -3 6 -10 10 -16 10 -5
0 -9 -4 -9 -10z"/>
<path d="M3035 3090 c3 -5 8 -10 11 -10 2 0 4 5 4 10 0 6 -5 10 -11 10 -5 0
-7 -4 -4 -10z"/>
<path d="M3060 3086 c0 -8 4 -17 9 -20 5 -4 7 3 4 14 -6 23 -13 26 -13 6z"/>
<path d="M3161 3084 c0 -11 3 -14 6 -6 3 7 2 16 -1 19 -3 4 -6 -2 -5 -13z"/>
<path d="M3640 3095 c0 -5 5 -17 10 -25 5 -8 10 -10 10 -5 0 6 -5 17 -10 25
-5 8 -10 11 -10 5z"/>
<path d="M380 3080 c0 -5 5 -10 10 -10 6 0 10 5 10 10 0 6 -4 10 -10 10 -5 0
-10 -4 -10 -10z"/>
<path d="M755 3080 c-3 -5 -2 -10 4 -10 5 0 13 5 16 10 3 6 2 10 -4 10 -5 0
-13 -4 -16 -10z"/>
<path d="M1604 3075 c4 -24 16 -30 16 -7 0 12 -4 22 -9 22 -5 0 -8 -7 -7 -15z"/>
<path d="M1910 3081 c0 -6 4 -12 8 -15 5 -3 9 1 9 9 0 8 -4 15 -9 15 -4 0 -8
-4 -8 -9z"/>
<path d="M1981 3074 c0 -11 3 -14 6 -6 3 7 2 16 -1 19 -3 4 -6 -2 -5 -13z"/>
<path d="M2298 3083 c7 -3 16 -2 19 1 4 3 -2 6 -13 5 -11 0 -14 -3 -6 -6z"/>
<path d="M2371 3074 c0 -11 3 -14 6 -6 3 7 2 16 -1 19 -3 4 -6 -2 -5 -13z"/>
<path d="M3105 3080 c3 -5 8 -10 11 -10 2 0 4 5 4 10 0 6 -5 10 -11 10 -5 0
-7 -4 -4 -10z"/>
<path d="M3321 3073 c-1 -12 -4 -23 -8 -26 -5 -2 -2 -2 6 0 8 2 11 -2 7 -12
-4 -12 -2 -13 14 -3 15 10 16 14 5 22 -7 6 -15 18 -18 26 -4 10 -6 8 -6 -7z"/>
<path d="M3395 3080 c-19 -8 -19 -9 3 -9 12 -1 22 4 22 9 0 6 -1 10 -2 9 -2 0
-12 -4 -23 -9z"/>
<path d="M3550 3075 c0 -8 2 -15 4 -15 2 0 6 7 10 15 3 8 1 15 -4 15 -6 0 -10
-7 -10 -15z"/>
<path d="M3610 3080 c0 -5 5 -10 10 -10 6 0 10 5 10 10 0 6 -4 10 -10 10 -5 0
-10 -4 -10 -10z"/>
<path d="M1437 3065 c3 -8 9 -12 14 -9 12 7 11 11 -5 17 -10 4 -13 1 -9 -8z"/>
<path d="M1693 3073 c-20 -7 -15 -23 6 -23 11 0 22 -6 24 -12 4 -10 6 -10 6 0
1 7 -6 15 -14 18 -8 4 -12 10 -9 15 6 10 5 10 -13 2z"/>
<path d="M1763 3073 c9 -2 23 -2 30 0 6 3 -1 5 -18 5 -16 0 -22 -2 -12 -5z"/>
<path d="M2389 3053 c-12 -31 3 -55 23 -35 9 9 8 12 -5 12 -13 0 -15 4 -7 25
5 14 7 25 5 25 -3 0 -10 -12 -16 -27z"/>
<path d="M2645 3069 c-4 -6 -5 -12 -2 -15 2 -3 7 2 10 11 7 17 1 20 -8 4z"/>
<path d="M3686 3069 c3 -6 0 -15 -7 -20 -11 -7 -11 -9 2 -9 9 0 18 3 22 6 8 8
-3 34 -15 34 -5 0 -6 -5 -2 -11z"/>
<path d="M580 3060 c0 -5 9 -14 20 -20 11 -6 20 -7 20 -3 0 5 -9 14 -20 21
-11 7 -20 8 -20 2z"/>
<path d="M720 3060 c0 -5 5 -10 11 -10 5 0 7 5 4 10 -3 6 -8 10 -11 10 -2 0
-4 -4 -4 -10z"/>
<path d="M1276 3055 c4 -8 7 -15 9 -15 2 0 5 7 9 15 3 9 0 15 -9 15 -9 0 -12
-6 -9 -15z"/>
<path d="M2082 3050 c0 -14 2 -19 5 -12 2 6 2 18 0 25 -3 6 -5 1 -5 -13z"/>
<path d="M2156 3053 c-6 -14 -5 -15 5 -6 7 7 10 15 7 18 -3 3 -9 -2 -12 -12z"/>
<path d="M2480 3060 c0 -5 7 -10 16 -10 8 0 12 5 9 10 -3 6 -10 10 -16 10 -5
0 -9 -4 -9 -10z"/>
<path d="M2557 3063 c-4 -3 -7 -15 -7 -26 0 -25 13 -14 17 13 3 21 1 24 -10
13z"/>
<path d="M75 3050 c-3 -5 -1 -10 4 -10 6 0 11 5 11 10 0 6 -2 10 -4 10 -3 0
-8 -4 -11 -10z"/>
<path d="M886 3047 c3 -10 9 -15 12 -12 3 3 0 11 -7 18 -10 9 -11 8 -5 -6z"/>
<path d="M1346 3045 c-11 -8 -15 -15 -10 -15 6 0 16 6 23 13 11 10 13 9 8 -5
-4 -10 -2 -18 3 -18 6 0 10 9 10 20 0 24 -8 25 -34 5z"/>
<path d="M2230 3050 c-9 -6 -10 -10 -3 -10 6 0 15 5 18 10 8 12 4 12 -15 0z"/>
<path d="M2590 3050 c0 -5 4 -10 9 -10 6 0 13 5 16 10 3 6 -1 10 -9 10 -9 0
-16 -4 -16 -10z"/>
<path d="M3376 3043 c-6 -14 -5 -15 5 -6 7 7 10 15 7 18 -3 3 -9 -2 -12 -12z"/>
<path d="M510 3040 c0 -5 5 -10 11 -10 5 0 7 5 4 10 -3 6 -8 10 -11 10 -2 0
-4 -4 -4 -10z"/>
<path d="M1228 3043 c7 -3 16 -2 19 1 4 3 -2 6 -13 5 -11 0 -14 -3 -6 -6z"/>
<path d="M1485 3040 c3 -6 1 -10 -6 -10 -7 0 -10 -3 -6 -6 3 -3 13 -2 22 4 16
8 16 9 1 15 -10 4 -15 3 -11 -3z"/>
<path d="M1745 3040 c3 -5 8 -10 11 -10 2 0 4 5 4 10 0 6 -5 10 -11 10 -5 0
-7 -4 -4 -10z"/>
<path d="M1891 3029 c-1 -15 5 -29 12 -32 8 -3 13 3 13 18 0 13 -3 22 -7 19
-4 -2 -10 2 -12 8 -3 7 -6 1 -6 -13z"/>
<path d="M2344 3036 c-10 -8 -17 -16 -14 -19 3 -2 14 4 24 14 23 22 18 25 -10
5z"/>
<path d="M2691 3034 c0 -11 3 -14 6 -6 3 7 2 16 -1 19 -3 4 -6 -2 -5 -13z"/>
<path d="M3623 3035 c-3 -9 -3 -18 -1 -21 3 -3 8 4 11 16 6 23 -1 27 -10 5z"/>
<path d="M3840 3036 c14 -8 36 -15 50 -15 23 1 22 2 -5 9 -16 4 -39 11 -50 14
-13 5 -12 2 5 -8z"/>
<path d="M725 3029 c-4 -6 -4 -13 -1 -16 3 -4 6 -1 6 6 0 8 8 11 20 8 11 -3
18 -1 14 4 -7 12 -31 11 -39 -2z"/>
<path d="M1966 3031 c-4 -7 -5 -15 -2 -18 9 -9 19 4 14 18 -4 11 -6 11 -12 0z"/>
<path d="M2172 3020 c0 -14 2 -19 5 -12 2 6 2 18 0 25 -3 6 -5 1 -5 -13z"/>
<path d="M3445 3030 c-2 -3 5 -6 15 -7 11 -1 22 2 25 7 3 5 -4 8 -16 7 -11 -1
-22 -4 -24 -7z"/>
<path d="M3557 3034 c-8 -8 3 -34 15 -34 7 0 6 5 -1 13 -6 8 -8 17 -4 20 3 4
4 7 1 7 -2 0 -7 -3 -11 -6z"/>
<path d="M200 3020 c0 -5 5 -10 11 -10 5 0 7 5 4 10 -3 6 -8 10 -11 10 -2 0
-4 -4 -4 -10z"/>
<path d="M307 3023 c-4 -3 -7 -13 -7 -21 0 -18 13 -7 16 13 2 17 1 18 -9 8z"/>
<path d="M840 3015 c-7 -8 -8 -15 -2 -15 5 0 15 7 22 15 7 8 8 15 2 15 -5 0
-15 -7 -22 -15z"/>
<path d="M1395 3020 c-3 -5 -1 -10 4 -10 6 0 11 5 11 10 0 6 -2 10 -4 10 -3 0
-8 -4 -11 -10z"/>
<path d="M45 3010 c-3 -5 1 -10 9 -10 9 0 16 5 16 10 0 6 -4 10 -9 10 -6 0
-13 -4 -16 -10z"/>
<path d="M267 3000 c-3 -11 -2 -20 3 -20 4 0 10 9 13 20 3 11 2 20 -3 20 -4 0
-10 -9 -13 -20z"/>
<path d="M3150 3010 c8 -5 20 -10 25 -10 6 0 3 5 -5 10 -8 5 -19 10 -25 10 -5
0 -3 -5 5 -10z"/>
<path d="M430 2999 c0 -5 5 -7 10 -4 6 3 10 8 10 11 0 2 -4 4 -10 4 -5 0 -10
-5 -10 -11z"/>
<path d="M500 3000 c0 -5 5 -10 11 -10 5 0 7 5 4 10 -3 6 -8 10 -11 10 -2 0
-4 -4 -4 -10z"/>
<path d="M863 2994 c-15 -16 -16 -24 -4 -24 8 0 24 30 19 35 -2 2 -9 -3 -15
-11z"/>
<path d="M1762 2999 c-40 -15 -24 -43 26 -47 23 -2 42 -8 42 -14 0 -6 10 0 23
13 13 15 32 23 47 22 l25 -2 -25 8 c-14 4 -24 12 -23 17 2 12 -85 14 -115 3z"/>
<path d="M2000 3000 c0 -5 5 -10 11 -10 5 0 7 5 4 10 -3 6 -8 10 -11 10 -2 0
-4 -4 -4 -10z"/>
<path d="M2622 2994 c-7 -8 -8 -14 -3 -14 10 0 25 19 20 25 -2 1 -10 -3 -17
-11z"/>
<path d="M2665 2998 c-12 -32 -9 -62 5 -64 8 0 9 1 3 3 -7 3 -13 5 -13 6 0 1
4 17 9 35 9 30 6 46 -4 20z"/>
<path d="M465 2989 c-4 -6 -5 -12 -2 -15 2 -3 7 2 10 11 7 17 1 20 -8 4z"/>
<path d="M1379 2991 c7 -5 10 -14 7 -20 -4 -6 -11 -9 -15 -7 -4 3 -8 -1 -8 -9
0 -13 3 -13 18 1 10 9 23 13 28 9 16 -9 13 1 -5 19 -8 9 -21 16 -27 16 -8 0
-7 -3 2 -9z"/>
<path d="M1465 2990 c-3 -5 1 -10 9 -10 8 0 18 5 21 10 3 6 -1 10 -9 10 -8 0
-18 -4 -21 -10z"/>
<path d="M1550 2994 c0 -10 31 -36 37 -31 3 3 -2 13 -10 22 -16 15 -27 19 -27
9z"/>
<path d="M3470 2991 c0 -6 4 -13 10 -16 6 -3 7 1 4 9 -7 18 -14 21 -14 7z"/>
<path d="M3537 2993 c-4 -3 -7 -11 -7 -17 0 -6 5 -5 12 2 6 6 9 14 7 17 -3 3
-9 2 -12 -2z"/>
<path d="M3710 2990 c0 -5 7 -10 15 -10 8 0 15 5 15 10 0 6 -7 10 -15 10 -8 0
-15 -4 -15 -10z"/>
<path d="M50 2980 c0 -5 5 -10 10 -10 6 0 10 5 10 10 0 6 -4 10 -10 10 -5 0
-10 -4 -10 -10z"/>
<path d="M2150 2976 c0 -9 5 -16 10 -16 6 0 10 4 10 9 0 6 -4 13 -10 16 -5 3
-10 -1 -10 -9z"/>
<path d="M110 2976 c0 -2 7 -7 16 -10 8 -3 12 -2 9 4 -6 10 -25 14 -25 6z"/>
<path d="M1690 2970 c-8 -5 -12 -11 -9 -14 2 -3 11 -1 19 4 8 5 12 11 9 14 -2
3 -11 1 -19 -4z"/>
<path d="M2040 2963 c-13 -15 -12 -16 4 -10 10 4 20 7 22 7 2 0 4 5 4 10 0 15
-13 12 -30 -7z"/>
<path d="M2235 2970 c-3 -5 -1 -10 4 -10 6 0 11 5 11 10 0 6 -2 10 -4 10 -3 0
-8 -4 -11 -10z"/>
<path d="M3553 2965 c-3 -9 -3 -19 1 -22 3 -4 6 -1 6 6 0 7 4 9 10 6 6 -3 7 1
4 9 -8 20 -13 20 -21 1z"/>
<path d="M333 2955 c-3 -9 -3 -19 1 -22 3 -4 6 1 6 10 0 8 6 18 13 20 9 4 9 6
-1 6 -7 1 -15 -6 -19 -14z"/>
<path d="M525 2960 c-4 -6 -11 -7 -17 -4 -7 4 -8 2 -4 -5 6 -9 12 -9 24 1 10
7 19 14 21 15 2 2 -1 3 -7 3 -6 0 -14 -5 -17 -10z"/>
<path d="M2610 2966 c0 -2 8 -10 18 -17 15 -13 16 -12 3 4 -13 16 -21 21 -21
13z"/>
<path d="M3359 2953 c-13 -16 -12 -17 4 -4 16 13 21 21 13 21 -2 0 -10 -8 -17
-17z"/>
<path d="M3787 2955 c-4 -8 -3 -16 1 -19 4 -3 9 4 9 15 2 23 -3 25 -10 4z"/>
<path d="M1596 2951 c-4 -7 -5 -15 -2 -18 9 -9 19 4 14 18 -4 11 -6 11 -12 0z"/>
<path d="M2200 2950 c-9 -6 -10 -10 -3 -10 6 0 15 5 18 10 8 12 4 12 -15 0z"/>
<path d="M2303 2943 c0 -17 5 -16 23 1 12 13 12 15 -4 13 -10 0 -19 -7 -19
-14z"/>
<path d="M3595 2949 c-4 -6 -5 -12 -2 -15 2 -3 7 2 10 11 7 17 1 20 -8 4z"/>
<path d="M155 2940 c3 -5 8 -10 11 -10 2 0 4 5 4 10 0 6 -5 10 -11 10 -5 0 -7
-4 -4 -10z"/>
<path d="M208 2943 c6 -2 18 -2 25 0 6 3 1 5 -13 5 -14 0 -19 -2 -12 -5z"/>
<path d="M255 2940 c-3 -5 -1 -10 4 -10 6 0 11 5 11 10 0 6 -2 10 -4 10 -3 0
-8 -4 -11 -10z"/>
<path d="M1704 2935 c-18 -13 -18 -14 4 -8 12 3 25 9 28 14 8 14 -10 11 -32
-6z"/>
<path d="M2591 2934 c0 -11 3 -14 6 -6 3 7 2 16 -1 19 -3 4 -6 -2 -5 -13z"/>
<path d="M3520 2946 c0 -4 7 -14 15 -22 8 -9 15 -11 15 -6 0 5 -7 15 -15 22
-8 7 -15 9 -15 6z"/>
<path d="M721 2924 c0 -11 3 -14 6 -6 3 7 2 16 -1 19 -3 4 -6 -2 -5 -13z"/>
<path d="M1973 2922 c1 -12 6 -18 15 -15 7 3 10 9 5 12 -4 3 -11 10 -15 15 -4
4 -6 -1 -5 -12z"/>
<path d="M3845 2930 c-3 -6 1 -7 9 -4 18 7 21 14 7 14 -6 0 -13 -4 -16 -10z"/>
<path d="M2102 2910 c0 -14 2 -19 5 -12 2 6 2 18 0 25 -3 6 -5 1 -5 -13z"/>
<path d="M395 2909 c-4 -6 -5 -12 -2 -15 2 -3 7 2 10 11 7 17 1 20 -8 4z"/>
<path d="M475 2910 c-3 -5 -1 -10 4 -10 6 0 11 5 11 10 0 6 -2 10 -4 10 -3 0
-8 -4 -11 -10z"/>
<path d="M1510 2909 c0 -5 5 -7 10 -4 6 3 10 8 10 11 0 2 -4 4 -10 4 -5 0 -10
-5 -10 -11z"/>
<path d="M1772 2904 c-7 -8 -8 -14 -3 -14 10 0 25 19 20 25 -2 1 -10 -3 -17
-11z"/>
<path d="M2125 2900 c-3 -5 -1 -10 4 -10 6 0 11 5 11 10 0 6 -2 10 -4 10 -3 0
-8 -4 -11 -10z"/>
<path d="M1249 2883 c-13 -16 -12 -17 4 -4 9 7 17 15 17 17 0 8 -8 3 -21 -13z"/>
<path d="M1616 2884 c-11 -8 -16 -14 -10 -14 13 0 39 18 34 24 -3 2 -14 -2
-24 -10z"/>
<path d="M2250 2889 c0 -5 5 -7 10 -4 6 3 10 8 10 11 0 2 -4 4 -10 4 -5 0 -10
-5 -10 -11z"/>
<path d="M1480 2870 c6 -11 13 -20 16 -20 2 0 0 9 -6 20 -6 11 -13 20 -16 20
-2 0 0 -9 6 -20z"/>
<path d="M1515 2879 c-4 -6 -5 -12 -2 -15 2 -3 7 2 10 11 7 17 1 20 -8 4z"/>
<path d="M1936 2881 c-3 -5 1 -12 10 -15 22 -8 25 -4 9 11 -8 7 -16 9 -19 4z"/>
<path d="M565 2870 c-3 -5 -2 -18 4 -27 7 -14 9 -12 8 10 -2 30 -3 31 -12 17z"/>
<path d="M794 2872 c4 -3 14 -7 22 -8 9 -1 13 0 10 4 -4 3 -14 7 -22 8 -9 1
-13 0 -10 -4z"/>
<path d="M1819 2863 c-13 -16 -12 -17 4 -4 9 7 17 15 17 17 0 8 -8 3 -21 -13z"/>
<path d="M2005 2870 c3 -5 8 -10 11 -10 2 0 4 5 4 10 0 6 -5 10 -11 10 -5 0
-7 -4 -4 -10z"/>
<path d="M2071 2864 c0 -11 3 -14 6 -6 3 7 2 16 -1 19 -3 4 -6 -2 -5 -13z"/>
<path d="M2169 2868 c7 -10 11 -27 8 -37 -3 -11 1 -22 7 -24 18 -7 7 50 -13
65 -14 12 -15 11 -2 -4z"/>
<path d="M765 2860 c-3 -5 -2 -18 4 -27 7 -14 9 -12 8 10 -2 30 -3 31 -12 17z"/>
<path d="M1367 2859 c7 -7 15 -10 18 -7 3 3 -2 9 -12 12 -14 6 -15 5 -6 -5z"/>
<path d="M1568 2863 c7 -3 16 -2 19 1 4 3 -2 6 -13 5 -11 0 -14 -3 -6 -6z"/>
<path d="M3270 2859 c0 -5 5 -7 10 -4 6 3 10 8 10 11 0 2 -4 4 -10 4 -5 0 -10
-5 -10 -11z"/>
<path d="M1700 2845 c0 -8 7 -15 16 -15 14 0 14 3 4 15 -7 8 -14 15 -16 15 -2
0 -4 -7 -4 -15z"/>
<path d="M1791 2844 c0 -11 3 -14 6 -6 3 7 2 16 -1 19 -3 4 -6 -2 -5 -13z"/>
<path d="M2110 2855 c0 -2 10 -10 23 -16 20 -11 21 -11 8 4 -13 16 -31 23 -31
12z"/>
<path d="M2005 2840 c-11 -3 -41 -16 -67 -28 -85 -38 -56 -59 80 -58 95 1 117
10 105 43 -10 27 -84 54 -118 43z"/>
<path d="M3437 2835 c-4 -8 -2 -17 3 -20 6 -4 10 3 10 14 0 25 -6 27 -13 6z"/>
<path d="M3590 2841 c0 -6 4 -13 10 -16 6 -3 7 1 4 9 -7 18 -14 21 -14 7z"/>
<path d="M2347 2833 c-4 -3 -7 -11 -7 -17 0 -6 5 -5 12 2 6 6 9 14 7 17 -3 3
-9 2 -12 -2z"/>
<path d="M1270 2821 c0 -6 4 -13 10 -16 6 -3 7 1 4 9 -7 18 -14 21 -14 7z"/>
<path d="M3760 2826 c0 -2 9 -6 20 -9 11 -3 18 -1 14 4 -5 9 -34 13 -34 5z"/>
<path d="M835 2809 c-4 -6 -5 -12 -2 -15 2 -3 7 2 10 11 7 17 1 20 -8 4z"/>
<path d="M1664 2806 c-10 -8 -16 -18 -11 -22 4 -4 7 -1 7 7 0 11 2 11 10 -1 8
-13 10 -12 10 4 0 12 5 16 16 12 8 -3 12 -2 9 4 -8 14 -18 13 -41 -4z"/>
<path d="M1821 2812 c0 -7 -5 -10 -11 -7 -5 3 -10 4 -10 1 0 -3 9 -10 19 -16
14 -7 22 -7 27 2 4 6 3 8 -4 4 -6 -3 -13 2 -15 11 -3 10 -5 12 -6 5z"/>
<path d="M3325 2810 c3 -5 8 -10 11 -10 2 0 4 5 4 10 0 6 -5 10 -11 10 -5 0
-7 -4 -4 -10z"/>
<path d="M1240 2799 c0 -5 5 -7 10 -4 6 3 10 8 10 11 0 2 -4 4 -10 4 -5 0 -10
-5 -10 -11z"/>
<path d="M1562 2780 c-1 -17 1 -30 6 -30 8 0 9 46 1 54 -3 3 -6 -8 -7 -24z"/>
<path d="M3210 2806 c0 -2 7 -7 16 -10 8 -3 12 -2 9 4 -6 10 -25 14 -25 6z"/>
<path d="M3956 2777 c3 -10 9 -15 12 -12 3 3 0 11 -7 18 -10 9 -11 8 -5 -6z"/>
<path d="M3335 2770 c3 -5 8 -10 11 -10 2 0 4 5 4 10 0 6 -5 10 -11 10 -5 0
-7 -4 -4 -10z"/>
<path d="M1317 2759 c7 -7 15 -10 18 -7 3 3 -2 9 -12 12 -14 6 -15 5 -6 -5z"/>
<path d="M2194 2750 c0 -13 4 -16 10 -10 7 7 7 13 0 20 -6 6 -10 3 -10 -10z"/>
<path d="M2157 2741 c-4 -17 -3 -21 5 -13 5 5 8 16 6 23 -3 8 -7 3 -11 -10z"/>
<path d="M3357 2673 c-10 -3 -17 -12 -15 -21 4 -20 83 -29 108 -13 13 9 12 12
-5 25 -20 15 -52 18 -88 9z"/>
<path d="M1367 2635 c-83 -23 -104 -59 -39 -68 20 -3 80 -3 132 -1 52 2 101 4
108 4 19 0 14 38 -7 50 -11 5 -31 10 -46 10 -14 0 -24 3 -22 8 8 12 -75 10
-126 -3z"/>
<path d="M1477 2526 c-7 -42 -3 -56 13 -40 5 5 5 25 1 44 l-7 35 -7 -39z"/>
<path d="M1372 2511 c-8 -4 -13 -11 -13 -15 3 -18 0 -20 -10 -6 -9 13 -10 13
-6 0 2 -8 12 -14 22 -12 13 3 16 -1 12 -17 -3 -14 -1 -18 9 -14 12 5 13 1 2
-22 -11 -24 -13 -25 -19 -8 -6 15 -8 14 -9 -7 -1 -14 -4 -38 -6 -55 -2 -21 0
-25 6 -15 5 8 7 17 4 22 -6 10 28 27 51 25 20 -2 67 64 48 70 -5 2 -9 16 -7
31 2 17 1 20 -3 7 -3 -11 -14 -32 -24 -46 -14 -19 -15 -29 -7 -37 7 -7 8 -15
3 -19 -4 -5 -10 -2 -12 5 -3 6 -9 10 -14 6 -13 -8 -11 3 6 36 13 25 13 29 1
24 -10 -4 -16 3 -18 25 -2 22 -6 28 -16 22z m72 -75 c-3 -9 -10 -16 -15 -16
-5 0 -4 9 3 20 14 22 21 20 12 -4z"/>
<path d="M1400 2506 c0 -2 7 -6 15 -10 8 -3 15 -1 15 4 0 6 -7 10 -15 10 -8 0
-15 -2 -15 -4z"/>
<path d="M1476 2438 c-23 -32 -20 -48 10 -48 14 0 23 4 19 9 -3 5 -1 12 5 16
5 3 10 1 10 -4 0 -6 5 -11 10 -11 13 0 13 37 1 45 -5 3 -12 1 -16 -5 -4 -6
-11 -8 -16 -4 -5 3 -7 10 -4 15 12 19 -5 8 -19 -13z"/>
<path d="M1304 2425 c-3 -8 -4 -20 -2 -27 3 -7 7 -1 10 15 6 29 1 36 -8 12z"/>
<path d="M1447 2338 c-7 -5 -1 -8 13 -8 14 0 31 4 39 9 10 7 6 9 -13 8 -15 -1
-33 -5 -39 -9z"/>
<path d="M1480 2286 c0 -20 2 -36 4 -36 8 0 12 61 4 66 -4 3 -8 -11 -8 -30z"/>
<path d="M1380 2296 c0 -2 7 -6 15 -10 8 -3 15 -1 15 4 0 6 -7 10 -15 10 -8 0
-15 -2 -15 -4z"/>
<path d="M1428 2293 c7 -3 16 -2 19 1 4 3 -2 6 -13 5 -11 0 -14 -3 -6 -6z"/>
<path d="M114 339 c-3 -6 -9 -40 -12 -75 -4 -53 -2 -65 12 -70 9 -3 16 -12 16
-20 0 -8 5 -14 10 -14 6 0 10 9 10 19 0 11 5 21 11 23 7 2 9 22 4 61 -6 46
-11 57 -26 57 -12 0 -16 5 -13 15 7 17 -2 20 -12 4z"/>
<path d="M3595 310 c6 -10 1 -12 -19 -8 -26 5 -28 4 -23 -25 2 -19 -1 -37 -9
-45 -21 -20 -17 -48 10 -69 13 -11 26 -28 29 -39 4 -17 5 -16 6 4 0 12 5 22
11 22 5 0 17 11 25 24 14 21 14 28 4 48 -8 13 -14 38 -14 57 0 20 -6 36 -14
39 -9 3 -11 0 -6 -8z"/>
<path d="M476 294 c-8 -21 -6 -74 3 -98 7 -18 8 -18 14 5 16 57 1 139 -17 93z"/>
<path d="M3766 302 c-11 -18 -10 -106 2 -110 7 -2 12 -10 12 -18 0 -10 5 -9
20 6 28 28 28 105 1 120 -24 12 -28 12 -35 2z"/>
<path d="M236 284 c-3 -9 -6 -23 -6 -33 0 -21 22 -71 32 -71 11 0 21 67 14 95
-7 28 -31 33 -40 9z"/>
<path d="M350 286 c-7 -9 -10 -23 -6 -31 3 -9 2 -13 -4 -10 -20 12 -9 -21 15
-47 14 -15 24 -33 23 -39 -2 -6 2 -13 9 -16 7 -3 9 3 6 16 -3 12 -1 21 6 21 6
0 19 7 29 16 14 12 17 24 13 52 -6 33 -9 37 -36 37 -17 -1 -33 3 -36 8 -3 4
-11 1 -19 -7z"/>
<path d="M3856 198 c-5 -39 -4 -55 7 -66 22 -21 37 -6 37 36 0 91 -33 114 -44
30z"/>
<path d="M3677 233 c-9 -8 -9 -46 -1 -67 10 -27 24 -7 24 35 0 37 -8 48 -23
32z"/>
</g>
</svg>
